<svg width="1836" height="1523" viewBox="0 0 1836 1523" fill="none" xmlns="http://www.w3.org/2000/svg">
<path d="M1177 925.725C1177 1249.16 914.809 1511.35 591.395 1511.35C267.971 1511.35 5.78906 1249.16 5.78906 925.725C5.78906 602.3 267.981 340.119 591.395 340.119C914.82 340.119 1177 602.3 1177 925.725Z" fill="black"/>
<path d="M1040.92 1125.38C1070.44 1114.73 1096.99 1104.54 1116.19 1097.14C1122.33 1094.77 1127.63 1092.73 1132.15 1091.02L1131.6 1087.49L1012.79 1135.35C1021.78 1132.21 1031.19 1128.89 1040.92 1125.38Z" fill="#E5BAAB"/>
<path d="M1574.98 925.601C1558.28 919.282 1521.63 1009.14 1518.31 985.253C1514.98 961.366 1575.9 880.563 1558.16 874.676C1535.04 867.004 1498.41 961.776 1494.72 969.571C1491.13 977.141 1479.64 972.289 1483.34 965.437C1488.67 955.581 1542.15 850.675 1519.52 842.921C1506.97 838.624 1501.34 861.865 1501.34 861.865C1501.34 861.865 1458.54 963.694 1447.98 959.684C1437.26 955.601 1460.37 894.974 1469.61 875.076C1478.74 855.414 1473.09 843.085 1461.03 846.265C1452.81 848.439 1423.06 908.698 1414.38 928.585C1405.71 948.473 1382.88 1003.44 1372.09 967.191C1361.3 930.934 1339.34 907.138 1328.93 904.831C1318.51 902.523 1311.5 916.185 1319.25 925.006C1325.52 932.134 1332.27 947.263 1336.87 958.832C1340.67 968.371 1342.91 978.484 1343.29 988.741C1344.17 1012.1 1343.11 1029.18 1342.1 1039.41L1158.74 1264.08L1132.55 1093.81C1128.31 1095.8 1123.35 1098.06 1117.6 1100.59C1098.72 1108.92 1072.31 1119.68 1042.7 1130.38C1014.48 1140.55 988.537 1148.78 968.978 1154.42C981.275 1201.92 996.424 1263.08 1014.59 1340.93C1073.87 1594.96 1261.31 1374.01 1261.31 1374.01L1464.03 1104.92C1495.94 1065.02 1539.46 1009.03 1557 979.11C1585.53 930.575 1581.21 927.96 1574.98 925.601Z" fill="#E5BAAB"/>
<path d="M93.7257 744.499C85.028 743.709 68.7814 724.653 50.4629 698.672C18.1851 771.197 0.0820536 851.425 0 935.91C4.12319 939.356 7.97977 941.684 11.4363 942.423C37.4575 947.941 180.949 903.827 309.383 861.395L208.293 705.903C152.332 728.058 104.3 745.463 93.7257 744.499Z" fill="#E5BAAB"/>
<path d="M838.595 707.103C840.944 709.031 843.159 710.98 845.559 712.898C905.807 761.022 970.25 790.89 1019.13 803.085C1043.54 809.403 1063.83 812.357 1077.89 813.547C1081.92 813.906 1085.38 814.172 1088.36 814.398C1049.65 685.174 928.444 628.044 928.444 628.044L911.243 620.916C906.145 631.931 900.873 643.388 895.694 654.773C884.093 680.25 863.047 698.405 838.595 707.103ZM898.114 699.995C891.653 704.559 881.047 700.025 879.868 692.2C878.688 684.374 887.488 676.927 895.017 679.379L896.904 680.189C903.879 683.933 904.586 695.441 898.114 699.995Z" fill="#E8505B"/>
<path d="M889.525 1176.62C878.253 1188.25 865.658 1196.58 854.16 1202.03C865.401 1197.46 877.792 1189.59 889.525 1176.62Z" fill="#455A64"/>
<path d="M703.597 1458.66C688.899 1458.85 667.412 1456.57 642.231 1448.62C617.092 1440.63 588.62 1426.69 559.962 1406.94C531.203 1387.26 502.648 1361.8 472.975 1335.13C443.303 1308.47 414.697 1283.4 386.009 1264.38C357.403 1245.29 329.043 1232.17 304.14 1224.83C279.195 1217.54 258.015 1215.74 243.492 1216.05C236.384 1216.18 230.866 1216.62 227.05 1216.97L162.033 1340.65C268.672 1452.38 418.943 1522.1 585.584 1522.1C630.836 1522.1 674.848 1516.88 717.146 1507.17L720.654 1457.57C720.582 1457.58 720.541 1457.58 720.469 1457.59C716.664 1458.19 710.972 1458.51 703.597 1458.66ZM436.81 1443.77C430.348 1448.33 419.743 1443.8 418.563 1435.98C417.384 1428.15 426.184 1420.7 433.713 1423.16L435.6 1423.97C442.564 1427.71 443.272 1439.22 436.81 1443.77Z" fill="#E8505B"/>
<path d="M933.571 1163.11C933.355 1162.37 945.427 1158.24 964.936 1151.69C978.023 1147.29 994.475 1141.73 1012.78 1135.34L1131.6 1087.47L1146.58 1081.43C1146.58 1081.43 1118.82 955.592 1094.2 837.22C1092.67 829.886 1090.82 822.819 1088.8 815.906C1085.7 815.947 1082.05 815.947 1077.75 815.609C1063.54 815.045 1042.99 812.655 1018.21 806.737C968.577 795.362 903.036 765.648 842.245 717.073C838.922 714.427 835.824 711.709 832.594 709.032C810.726 715.288 786.623 714.16 764.294 704.006C718.303 683.103 695.913 631.419 710.58 584.269C708.169 581.387 705.677 578.412 703.41 575.664C687.318 556.053 674.651 539.929 665.984 528.698C662.004 523.437 658.742 519.139 656.127 515.683C653.922 512.667 652.834 511.036 652.978 510.913C653.122 510.8 654.496 512.205 656.968 515.005C659.789 518.288 663.307 522.38 667.604 527.385C677.235 538.781 690.333 554.299 706.303 573.223C708.149 575.366 710.18 577.715 712.108 579.941C712.847 577.91 713.534 575.879 714.406 573.879L727.431 544.073C717.359 536.545 669.184 503.528 595.059 498.236C598.884 501.241 603.726 505.436 609.654 510.831C623.747 523.806 642.567 544.494 661.686 573.028C680.763 601.572 699.677 638.004 716.672 680.005C733.822 721.965 749.002 769.372 766.458 818.44C783.956 867.426 802.91 913.417 825.967 952.043C848.891 990.711 875.374 1021.91 900.913 1044.29C905.426 1048.23 909.878 1051.81 914.267 1055.23C913.703 1052.75 913.386 1051.31 913.703 1051.21C913.96 1051.11 915.016 1053.14 916.432 1056.9C936.145 1071.93 954.279 1081.97 968.095 1088.04C985.5 1095.76 995.829 1098.3 995.624 1098.95C995.572 1099.12 993.008 1098.5 988.147 1097.12C983.234 1095.92 976.208 1093.45 967.264 1089.94C954.053 1084.65 936.996 1075.87 918.339 1062.61C919.827 1067.67 921.273 1074.27 922.083 1082.3C923.416 1094.38 922.678 1109.98 918.165 1126.3C922.976 1111.65 924.791 1098.28 925.078 1087.14L933.919 1167.1L957.017 1157.78C942.555 1161.75 933.735 1163.68 933.571 1163.11ZM1006.62 914.986L1008.51 915.786C1015.48 919.52 1016.19 931.028 1009.72 935.592C1003.25 940.146 992.649 935.622 991.47 927.797C990.301 919.981 999.101 912.535 1006.62 914.986Z" fill="#E8505B"/>
<path d="M814.652 1211.3L815.903 1208.11C815.903 1208.11 820.027 1208.71 826.632 1208.35C828.56 1207.8 830.652 1207.15 832.888 1206.41C830.622 1203.6 827.298 1199.45 822.888 1194.23C814.067 1183.81 800.077 1169.7 780.661 1154.94C761.286 1140.13 736.188 1125.18 706.731 1111.91C677.376 1098.42 643.744 1086.63 608.031 1075.63C572.307 1064.59 537.824 1055.25 506.982 1044.82C476.16 1034.37 448.96 1022.9 427.595 1010.49C406.179 998.188 390.25 985.962 380.065 976.69C374.793 972.259 371.234 968.228 368.629 965.715C366.096 963.121 364.834 961.705 364.967 961.572C365.296 961.223 370.865 966.413 381.419 975.1C391.943 983.819 408.046 995.439 429.441 1007.17C450.796 1019.02 477.832 1030.01 508.541 1040.14C539.28 1050.25 573.753 1059.44 609.61 1070.52C645.437 1081.55 679.263 1093.57 708.792 1107.43C738.414 1121.07 763.645 1136.55 782.969 1151.95C802.344 1167.29 816.088 1181.99 824.488 1192.91C828.919 1198.19 831.627 1202.86 833.74 1205.79C833.822 1205.92 833.842 1205.95 833.914 1206.07C836.683 1205.13 839.576 1204.08 842.725 1202.77C860.602 1195.48 884.079 1180.04 899.946 1154.9C915.742 1129.72 919.496 1101.88 918.337 1082.61C917.844 1073.28 916.542 1065.82 915.424 1060.49C909.865 1056.43 904.203 1052.05 898.439 1047.16C872.264 1024.88 845.145 993.542 821.739 954.587C798.19 915.663 778.969 869.384 761.42 820.255C743.912 771.054 728.906 723.698 712.095 681.861C695.438 639.983 677.027 603.685 658.514 575.12C639.96 546.575 621.754 525.703 608.195 512.349C601.887 506.103 596.748 501.436 593.025 498.113C532.162 494.215 454.149 509.098 365.419 571.92L310.781 607.531C311.428 608.608 312.597 610.772 314.32 614.126C315.643 616.731 317.182 619.767 318.956 623.265C321.048 626.834 323.397 630.845 326.023 635.316C336.926 653.214 354.629 678.271 382.004 704.057C409.071 730.119 445.308 756.766 487.863 782.531C530.347 808.46 579.486 832.932 629.026 862.543C678.525 891.98 723.624 924.719 757.266 962.177C791.359 999.316 812.006 1040.62 825.052 1076C838.242 1111.5 845.576 1141.26 850.684 1161.72C852.992 1171.62 854.838 1179.51 856.212 1185.39C857.402 1190.82 857.935 1193.69 857.751 1193.74C857.576 1193.78 856.684 1191 855.166 1185.66C853.545 1179.83 851.381 1172.04 848.663 1162.25C842.95 1141.98 835.063 1112.44 821.524 1077.36C808.098 1042.37 787.42 1001.92 753.625 965.5C720.259 928.75 675.571 896.452 626.288 867.149C576.984 837.681 527.864 813.045 485.299 786.757C442.682 760.643 406.363 733.442 379.378 706.795C352.085 680.425 334.649 654.743 324.228 636.393C321.705 631.737 319.387 627.655 317.551 624.024C315.94 620.424 314.556 617.295 313.356 614.618C311.858 611.203 310.925 608.957 310.494 607.767L193.886 683.779L208.307 705.954L309.397 861.446L333.961 899.231L409.41 854.225C390.096 863.487 377.009 869.99 376.486 869.067C375.768 867.856 401.779 851.466 436.221 835.753C470.611 819.958 500.028 810.983 500.469 812.316C500.992 813.773 472.581 824.932 438.446 840.604C436.19 841.63 433.974 842.645 431.79 843.661L340.577 1001.1L227.712 1215.81C231.477 1215.09 236.718 1214.51 243.456 1214.02C258.123 1213.07 279.724 1214.3 305.212 1221.25C330.649 1228.24 359.634 1241.22 388.753 1260.33C417.974 1279.38 446.878 1304.53 476.571 1331.2C506.243 1357.88 534.541 1383.29 562.788 1402.95C590.964 1422.68 618.831 1436.76 643.437 1445.08C668.073 1453.37 689.13 1456.18 703.654 1456.64C711.172 1456.9 716.916 1456.73 720.762 1456.59L721.234 1449.86L814.231 1212.45C813.134 1212.44 812.447 1212.36 812.437 1212.22C812.385 1211.91 813.175 1211.66 814.652 1211.3ZM531.731 645.501C525.269 650.055 514.664 645.532 513.485 637.706C512.305 629.88 521.105 622.434 528.634 624.885L530.521 625.685C537.495 629.439 538.203 640.947 531.731 645.501ZM539.988 930.422L541.875 931.222C548.849 934.956 549.557 946.464 543.096 951.028C536.634 955.592 526.028 951.059 524.849 943.233C523.669 935.417 532.47 927.971 539.988 930.422ZM639.488 1194.62L641.375 1195.43C648.35 1199.17 649.058 1210.68 642.586 1215.24C636.124 1219.79 625.518 1215.27 624.339 1207.45C623.169 1199.62 631.97 1192.16 639.488 1194.62ZM332.074 1211.79C325.612 1216.35 315.007 1211.82 313.828 1204C312.648 1196.17 321.448 1188.73 328.977 1191.18L330.864 1191.99C337.838 1195.73 338.536 1207.24 332.074 1211.79ZM792.323 1250.75C789 1252.6 784.128 1255.41 777.461 1258.24C764.333 1264.24 744.475 1271.5 718.946 1276.1C693.479 1280.84 662.36 1282.65 628.236 1279.5C594.092 1276.54 557.055 1268.47 519.556 1256.26C482.017 1244.1 447.38 1229.58 416.056 1216.23C384.753 1202.79 356.69 1190.44 332.885 1180.77C321.028 1175.96 310.002 1172.44 300.012 1171.26C290.053 1170 281.304 1171.1 274.565 1173.17C260.934 1177.49 255.928 1184.58 255.569 1184.03C255.467 1183.95 256.575 1182.23 259.395 1179.61C262.236 1177.05 266.975 1173.67 273.919 1171.19C280.821 1168.73 289.929 1167.27 300.34 1168.3C310.751 1169.23 322.197 1172.62 334.259 1177.26C358.352 1186.53 386.589 1198.53 417.974 1211.7C449.37 1224.8 483.935 1239.13 521.198 1251.19C558.44 1263.32 594.974 1271.43 628.688 1274.62C662.371 1277.99 693.079 1276.61 718.3 1272.4C743.583 1268.33 763.368 1261.71 776.64 1256.35C789.974 1251.06 796.969 1247.19 797.236 1247.7C797.339 1247.84 795.646 1248.89 792.323 1250.75Z" fill="#E8505B"/>
<path d="M706.3 573.232C690.32 554.309 677.222 538.79 667.601 527.395C663.304 522.39 659.786 518.297 656.965 515.015C654.493 512.215 653.119 510.81 652.975 510.923C652.832 511.036 653.919 512.677 656.124 515.692C658.74 519.149 662.001 523.446 665.981 528.708C674.648 539.929 687.315 556.063 703.408 575.673C705.674 578.422 708.177 581.397 710.577 584.279C711.028 582.833 711.582 581.407 712.105 579.971C710.177 577.725 708.146 575.376 706.3 573.232Z" fill="#E5BAAB"/>
<path d="M1019.13 803.083C970.251 790.888 905.808 761.021 845.56 712.896C843.171 710.988 840.945 709.029 838.596 707.101C836.617 707.809 834.607 708.455 832.586 709.029C835.817 711.706 838.914 714.424 842.238 717.071C903.029 765.646 968.579 795.37 1018.2 806.735C1042.98 812.653 1063.54 815.043 1077.74 815.607C1082.04 815.945 1085.69 815.945 1088.79 815.904C1090.81 815.884 1092.63 815.843 1094.1 815.863C1097.84 815.802 1099.8 815.689 1099.8 815.504C1099.8 815.166 1095.75 814.94 1088.35 814.386C1085.37 814.161 1081.92 813.894 1077.88 813.535C1063.83 812.345 1043.55 809.401 1019.13 803.083Z" fill="#E5BAAB"/>
<path d="M918.35 1062.62C937.007 1075.89 954.064 1084.67 967.275 1089.96C976.218 1093.46 983.234 1095.93 988.157 1097.14C993.019 1098.51 995.583 1099.14 995.634 1098.96C995.84 1098.32 985.511 1095.77 968.105 1088.05C954.289 1081.97 936.166 1071.95 916.442 1056.91C916.709 1057.63 916.976 1058.3 917.263 1059.14C917.622 1060.17 917.991 1061.39 918.35 1062.62Z" fill="#E5BAAB"/>
<path d="M658.516 575.109C677.03 603.674 695.44 639.972 712.097 681.85C728.908 723.677 743.913 771.043 761.422 820.244C778.971 869.374 798.182 915.652 821.741 954.576C845.147 993.531 872.266 1024.87 898.441 1047.15C904.205 1052.04 909.867 1056.41 915.426 1060.48C914.985 1058.36 914.595 1056.64 914.267 1055.24C909.867 1051.82 905.426 1048.24 900.913 1044.3C875.384 1021.92 848.891 990.721 825.967 952.053C802.9 913.426 783.956 867.435 766.458 818.449C748.991 769.381 733.821 721.985 716.672 680.015C699.676 638.013 680.763 601.581 661.685 573.037C642.557 544.503 623.746 523.815 609.653 510.84C603.725 505.445 598.884 501.25 595.058 498.245C594.299 497.65 593.53 497.035 592.853 496.543C588.873 493.455 586.73 491.896 586.617 492.04C586.412 492.286 588.781 494.296 593.048 498.102C596.761 501.425 601.899 506.092 608.217 512.338C621.767 525.692 639.962 546.564 658.516 575.109Z" fill="#E5BAAB"/>
<path d="M317.561 623.982C319.397 627.613 321.715 631.705 324.238 636.352C334.659 654.701 352.095 680.384 379.388 706.754C406.374 733.411 442.693 760.601 485.309 786.715C527.874 813.013 576.994 837.64 626.298 867.107C675.581 896.421 720.27 928.709 753.635 965.458C787.431 1001.88 808.108 1042.33 821.534 1077.32C835.073 1112.4 842.96 1141.94 848.673 1162.21C851.391 1172 853.555 1179.8 855.176 1185.62C856.694 1190.96 857.586 1193.74 857.761 1193.7C857.935 1193.66 857.402 1190.79 856.222 1185.35C854.848 1179.46 853.001 1171.59 850.694 1161.68C845.586 1141.22 838.252 1111.47 825.062 1075.95C812.016 1040.58 791.369 999.275 757.276 962.135C723.644 924.678 678.535 891.949 629.036 862.502C579.486 832.901 530.346 808.418 487.873 782.489C445.318 756.724 409.081 730.067 382.014 704.015C354.639 678.23 336.926 653.173 326.033 635.275C323.418 630.803 321.058 626.782 318.966 623.223C317.192 619.726 315.653 616.69 314.33 614.084C312.607 610.73 311.438 608.577 310.791 607.489C310.484 606.976 310.258 606.638 310.207 606.659C310.156 606.679 310.279 607.1 310.494 607.684C310.925 608.874 311.858 611.12 313.356 614.536C314.556 617.264 315.951 620.382 317.561 623.982Z" fill="#E5BAAB"/>
<path d="M836.567 1210.53C836.649 1210.47 836.321 1209.87 835.746 1208.92C835.521 1208.98 835.315 1209.04 835.09 1209.1C835.931 1210.08 836.454 1210.63 836.567 1210.53Z" fill="#E5BAAB"/>
<path d="M824.484 1192.9C816.084 1181.98 802.34 1167.28 782.965 1151.94C763.641 1136.54 738.41 1121.06 708.789 1107.42C679.27 1093.56 645.443 1081.54 609.606 1070.51C573.749 1059.43 539.276 1050.25 508.537 1040.13C477.818 1030 450.782 1019.01 429.437 1007.16C408.042 995.419 391.939 983.798 381.415 975.091C370.861 966.403 365.292 961.213 364.964 961.562C364.83 961.695 366.102 963.111 368.625 965.706C371.231 968.208 374.8 972.239 380.061 976.68C390.246 985.942 406.185 998.168 427.591 1010.48C448.956 1022.89 476.157 1034.37 506.978 1044.81C537.82 1055.24 572.313 1064.58 608.027 1075.62C643.741 1086.62 677.373 1098.41 706.727 1111.9C736.184 1125.17 761.282 1140.12 780.657 1154.93C800.073 1169.69 814.053 1183.8 822.884 1194.22C827.295 1199.45 830.618 1203.59 832.884 1206.4C833.223 1206.29 833.561 1206.17 833.91 1206.05C833.838 1205.94 833.818 1205.9 833.736 1205.77C831.623 1202.85 828.915 1198.18 824.484 1192.9Z" fill="#E5BAAB"/>
<path d="M718.304 1272.38C693.083 1276.59 662.374 1277.97 628.691 1274.6C594.977 1271.41 558.433 1263.31 521.201 1251.17C483.938 1239.11 449.373 1224.79 417.977 1211.68C386.592 1198.51 358.355 1186.51 334.262 1177.24C322.2 1172.62 310.744 1169.21 300.343 1168.28C289.933 1167.25 280.825 1168.72 273.922 1171.17C266.978 1173.64 262.24 1177.04 259.399 1179.59C256.578 1182.22 255.47 1183.93 255.573 1184.01C255.942 1184.56 260.937 1177.47 274.568 1173.15C281.307 1171.09 290.056 1169.99 300.015 1171.24C310.005 1172.42 321.031 1175.94 332.888 1180.75C356.694 1190.42 384.756 1202.77 416.06 1216.21C447.383 1229.57 482.02 1244.1 519.56 1256.24C557.058 1268.45 594.095 1276.53 628.24 1279.48C662.354 1282.63 693.483 1280.82 718.95 1276.09C744.489 1271.48 764.336 1264.22 777.465 1258.22C784.121 1255.38 789.003 1252.58 792.326 1250.73C795.639 1248.87 797.332 1247.82 797.25 1247.66C796.983 1247.15 789.988 1251.02 776.654 1256.31C763.372 1261.7 743.587 1268.31 718.304 1272.38Z" fill="#E5BAAB"/>
<path d="M703.643 1456.58C689.119 1456.13 668.062 1453.31 643.426 1445.02C618.82 1436.7 590.952 1422.62 562.777 1402.89C534.52 1383.22 506.232 1357.83 476.559 1331.14C446.866 1304.45 417.963 1279.3 388.741 1260.27C359.623 1241.16 330.637 1228.17 305.2 1221.19C279.713 1214.25 258.112 1213.02 243.445 1213.96C236.717 1214.45 231.465 1215.03 227.701 1215.75C227.352 1215.83 226.952 1215.88 226.634 1215.95C222.829 1216.64 220.849 1217.09 220.88 1217.26C220.932 1217.57 223.065 1217.31 227.075 1216.94C230.891 1216.59 236.409 1216.15 243.517 1216.03C258.04 1215.72 279.22 1217.52 304.165 1224.81C329.068 1232.14 357.428 1245.27 386.033 1264.36C414.721 1283.38 443.327 1308.44 473 1335.11C502.662 1361.78 531.227 1387.24 559.987 1406.92C588.644 1426.67 617.117 1440.61 642.256 1448.6C667.436 1456.56 688.924 1458.83 703.622 1458.64C710.986 1458.5 716.679 1458.17 720.515 1457.57C720.587 1457.56 720.628 1457.56 720.699 1457.55C724.412 1457.08 726.351 1456.76 726.33 1456.57C726.299 1456.28 724.371 1456.39 720.771 1456.52C716.904 1456.67 711.161 1456.84 703.643 1456.58Z" fill="#E5BAAB"/>
<path d="M1117.62 1100.61C1123.37 1098.08 1128.33 1095.82 1132.57 1093.83C1142.26 1089.3 1147.81 1086.34 1147.61 1085.88C1147.4 1085.4 1141.72 1087.39 1132.13 1091.01C1127.62 1092.71 1122.32 1094.76 1116.17 1097.13C1096.97 1104.54 1070.43 1114.72 1040.91 1125.37C1031.18 1128.88 1021.77 1132.2 1012.77 1135.34C994.477 1141.73 978.015 1147.29 964.927 1151.69C945.419 1158.24 933.347 1162.37 933.562 1163.11C933.727 1163.68 942.547 1161.75 957.03 1157.8C959.85 1157.03 962.814 1156.21 966.056 1155.29C966.999 1155.02 968.025 1154.72 968.999 1154.44C988.559 1148.8 1014.5 1140.57 1042.72 1130.4C1072.34 1119.71 1098.75 1108.94 1117.62 1100.61Z" fill="#263238"/>
<path d="M922.099 1082.32C921.278 1074.29 919.842 1067.68 918.355 1062.63C917.996 1061.39 917.627 1060.18 917.258 1059.14C916.96 1058.3 916.704 1057.62 916.437 1056.92C915.021 1053.16 913.955 1051.13 913.709 1051.22C913.381 1051.32 913.698 1052.77 914.273 1055.24C914.591 1056.65 914.991 1058.37 915.432 1060.49C916.55 1065.82 917.852 1073.28 918.345 1082.61C919.504 1101.88 915.75 1129.73 899.954 1154.9C884.087 1180.04 860.61 1195.48 842.732 1202.77C839.583 1204.08 836.691 1205.13 833.922 1206.07C833.573 1206.18 833.235 1206.31 832.896 1206.42C830.66 1207.17 828.568 1207.81 826.639 1208.36C821.193 1209.9 817.008 1210.76 814.66 1211.32C813.183 1211.67 812.393 1211.93 812.434 1212.18C812.444 1212.33 813.131 1212.4 814.229 1212.41C815.685 1212.43 817.942 1212.32 821.111 1211.96C824.783 1211.55 829.594 1210.63 835.101 1209.12C835.327 1209.05 835.532 1209 835.758 1208.94C838.394 1208.2 841.153 1207.36 844.107 1206.3C847.296 1205.18 850.692 1203.7 854.158 1202.06C865.646 1196.61 878.251 1188.27 889.523 1176.64C894.908 1171.08 900.006 1164.84 904.467 1157.76C910.919 1147.47 915.309 1136.77 918.181 1126.34C922.694 1110 923.432 1094.39 922.099 1082.32Z" fill="#263238"/>
<path d="M500.451 812.257C499.999 810.924 470.593 819.899 436.203 835.694C401.761 851.407 375.75 867.808 376.468 869.008C376.991 869.941 390.078 863.428 409.392 854.166C416.171 850.915 423.72 847.325 431.772 843.602C433.956 842.586 436.172 841.571 438.428 840.545C472.563 824.873 500.963 813.714 500.451 812.257Z" fill="#263238"/>
<path d="M530.518 625.697L528.63 624.897C521.112 622.446 512.312 629.892 513.481 637.718C514.661 645.544 525.266 650.067 531.728 645.513C538.2 640.949 537.492 629.441 530.518 625.697Z" fill="#E8505B"/>
<path d="M1009.72 935.59C1016.18 931.026 1015.47 919.518 1008.51 915.784L1006.62 914.984C999.1 912.533 990.3 919.979 991.47 927.805C992.649 935.621 1003.25 940.144 1009.72 935.59Z" fill="#E8505B"/>
<path d="M543.097 951.03C549.558 946.476 548.851 934.957 541.876 931.224L539.989 930.424C532.471 927.973 523.67 935.419 524.84 943.235C526.019 951.061 536.625 955.594 543.097 951.03Z" fill="#E8505B"/>
<path d="M642.588 1215.23C649.05 1210.67 648.342 1199.16 641.378 1195.42L639.491 1194.61C631.972 1192.16 623.172 1199.61 624.342 1207.44C625.521 1215.26 636.126 1219.78 642.588 1215.23Z" fill="#E8505B"/>
<path d="M435.603 1423.97L433.715 1423.16C426.197 1420.71 417.397 1428.15 418.566 1435.98C419.746 1443.8 430.351 1448.33 436.813 1443.77C443.275 1439.22 442.567 1427.71 435.603 1423.97Z" fill="#E8505B"/>
<path d="M330.862 1192L328.975 1191.19C321.457 1188.74 312.657 1196.18 313.826 1204.01C315.005 1211.84 325.611 1216.36 332.073 1211.8C338.534 1207.24 337.837 1195.73 330.862 1192Z" fill="#E8505B"/>
<path d="M879.868 692.211C881.047 700.037 891.653 704.56 898.115 700.006C904.577 695.452 903.869 683.934 896.904 680.201L895.017 679.39C887.499 676.939 878.699 684.385 879.868 692.211Z" fill="#E8505B"/>
<path d="M986.408 146.198C985.988 147.603 985.526 149.059 985.044 150.567C986.244 162.485 989.085 179.727 997.629 197.604C1004.85 213.892 1016.03 225.841 1027.09 228.19C1027.14 228.2 1027.19 228.21 1027.24 228.221C1009.99 202.169 995.403 173.45 986.408 146.198Z" fill="#E5BAAB"/>
<path d="M712.102 579.949C711.579 581.385 711.025 582.81 710.574 584.257C695.906 631.417 718.297 683.101 764.288 703.993C786.617 714.148 810.72 715.276 832.587 709.019C834.608 708.445 836.618 707.788 838.598 707.091C863.039 698.393 884.086 680.239 895.697 654.761C900.876 643.387 906.148 631.92 911.246 620.904C918.59 605.037 925.513 590.216 931.205 578.072C939.749 559.866 945.514 547.743 945.514 547.743L935.011 568.01C849.808 536.994 850.721 463.73 850.721 463.73C889.02 525.168 945.514 547.743 945.514 547.743C945.514 547.743 1012.97 566.595 1065.71 484.726C1088.2 449.822 1115.59 390.518 1139.03 335.604C1138.83 334.711 1138.6 333.809 1138.41 332.916C1136.42 332.209 1134.49 331.224 1132.67 330.198C1131.33 329.45 1130.05 328.578 1128.76 327.737C1128.77 327.757 1128.79 327.778 1128.8 327.798C1130.96 332.332 1130.92 335.562 1129.99 335.911C1128.03 336.763 1122.99 326.619 1111.73 321.234C1100.57 315.685 1089.51 317.962 1088.96 315.89C1088.67 314.947 1091.18 312.916 1096.05 311.818C1099.96 310.916 1105.49 310.957 1111.17 312.793C1089.69 290.002 1073.89 256.094 1062.44 229.652C1064.23 242.914 1087.01 284.566 1088.8 297.828C1069.04 282.535 1048.74 259.622 1030.89 233.631C1029.38 233.642 1027.77 233.549 1026.05 233.303C1019.64 232.411 1012.16 228.924 1006.08 222.985C999.895 217.108 994.961 209.241 990.961 200.759C984.622 187.435 981.699 174.112 980.673 163.065C967.155 198.636 938.713 249.57 882.383 273.52C874.578 268.002 865.491 264.094 855.962 263.366C846.177 262.617 835.951 265.396 828.567 271.858C821.161 278.34 817.048 288.064 816.166 297.869C815.274 307.675 817.366 317.552 820.802 326.783C823.018 332.752 825.972 338.568 830.331 343.163C823.736 350.271 816.607 357.173 809.089 363.604C811.797 367.235 815.787 370.056 820.761 370.825C827.807 372.097 834.013 398.59 837.654 393.513C853.224 415.236 863.634 352.096 863.173 347.153C862.126 337.05 836.628 332.219 837.654 331.552C838.085 330.947 844.659 335.306 847.49 347.153C848.772 352.948 848.177 360.886 843.511 367.83C839.203 374.907 829.223 380.056 819.52 378.118C813.089 377.174 807.663 373.461 804.033 368.815L765.662 456.633L727.446 544.091L714.42 573.897C713.528 575.887 712.84 577.928 712.102 579.949ZM1085.96 331.583C1088.46 325.521 1095.27 322.588 1101.17 325.019C1107.08 327.46 1109.84 334.342 1107.33 340.404C1104.83 346.465 1098.02 349.389 1092.11 346.947C1086.23 344.527 1083.46 337.645 1085.96 331.583ZM1022.63 405.37C1025.65 406.426 1028.64 407.123 1030.08 405.236C1031.77 403.318 1032.08 399.39 1032.33 395.113C1033.02 386.302 1033.76 377.071 1034.53 367.389C1037.97 328.055 1041.95 296.269 1043.42 296.372C1044.91 296.474 1043.33 328.444 1039.9 367.779C1038.98 377.441 1038.12 386.661 1037.27 395.482C1036.76 399.534 1036.82 404.436 1033.25 408.385C1031.43 410.334 1028.56 411.001 1026.48 410.652C1024.37 410.375 1022.74 409.626 1021.28 409.042C1009.6 404.221 1002.5 400.867 1002.77 400.159C1003.04 399.421 1010.61 401.482 1022.63 405.37ZM1001.25 275.151C1003.4 279.684 1003.37 282.915 1002.44 283.264C1000.48 284.115 995.423 273.961 984.181 268.586C973.022 263.037 961.955 265.314 961.401 263.243C961.104 262.299 963.606 260.268 968.488 259.171C973.299 258.053 980.561 258.227 987.545 261.622C994.53 265.048 999.156 270.668 1001.25 275.151ZM983.032 286.556C980.53 292.618 973.719 295.541 967.811 293.11C961.914 290.679 959.155 283.797 961.657 277.735C964.16 271.674 970.97 268.74 976.868 271.171C982.776 273.612 985.535 280.505 983.032 286.556ZM963.483 400.457C963.74 397.872 964.18 395.451 964.878 393.513C966.909 387.769 969.74 385.154 970.54 385.636C971.801 386.149 969.586 392.364 969.863 400.734C973.484 401.636 976.879 403.605 979.504 406.293C985.074 411.995 987.474 420.611 985.668 428.375L985.679 429.093C985.638 429.309 985.422 429.442 985.34 429.647C989.176 432.601 992.13 434.201 991.781 435.104C991.576 436.017 987.73 436.273 982.171 433.791C981.412 433.452 980.581 432.909 979.771 432.458C978.827 432.396 977.873 432.242 976.94 432.068C970.827 430.878 964.55 429.483 959.483 425.873C954.416 422.252 950.847 415.821 952.426 409.801C953.729 404.826 958.416 401.298 963.483 400.457ZM841.1 323.09C837.726 320.28 835.551 315.152 835.244 309.869C834.957 304.515 835.664 299.12 837.654 293.346C839.644 287.633 843.593 282.423 848.526 279.684C853.357 276.812 859.193 276.504 863.173 278.258C871.47 281.91 871.368 288.782 870.362 288.515C869.398 288.874 867.573 284.453 861.593 283.233C855.993 281.776 847.624 286.515 844.618 295.859C841.398 305.305 841.018 315.141 844.844 319.429C848.639 324.29 853.296 323.675 853.511 324.66C854.342 325.449 848.085 328.967 841.1 323.09Z" fill="#E5BAAB"/>
<path d="M1092.12 346.961C1098.03 349.402 1104.84 346.468 1107.34 340.417C1109.84 334.355 1107.08 327.473 1101.18 325.032C1095.28 322.601 1088.47 325.535 1085.97 331.596C1083.45 337.648 1086.22 344.53 1092.12 346.961Z" fill="#263238"/>
<path d="M961.666 277.739C959.164 283.801 961.933 290.673 967.82 293.114C973.728 295.555 980.539 292.621 983.041 286.56C985.544 280.498 982.785 273.616 976.877 271.175C970.979 268.744 964.159 271.677 961.666 277.739Z" fill="#263238"/>
<path d="M968.497 259.185C963.615 260.282 961.112 262.303 961.41 263.257C961.953 265.339 973.03 263.052 984.19 268.601C995.431 273.975 1000.49 284.129 1002.45 283.278C1003.38 282.929 1003.41 279.688 1001.26 275.165C999.165 270.683 994.539 265.052 987.554 261.636C980.569 258.231 973.297 258.067 968.497 259.185Z" fill="#263238"/>
<path d="M1021.29 409.023C1022.75 409.618 1024.38 410.356 1026.49 410.633C1028.58 410.982 1031.44 410.316 1033.26 408.367C1036.83 404.418 1036.77 399.515 1037.28 395.464C1038.12 386.653 1038.99 377.433 1039.91 367.76C1043.34 328.426 1044.91 296.456 1043.44 296.353C1041.95 296.251 1037.97 328.036 1034.54 367.371C1033.78 377.053 1033.05 386.284 1032.34 395.094C1032.09 399.382 1031.79 403.3 1030.09 405.218C1028.66 407.105 1025.66 406.408 1022.65 405.351C1010.63 401.464 1003.05 399.402 1002.79 400.12C1002.51 400.849 1009.6 404.202 1021.29 409.023Z" fill="#263238"/>
<path d="M850.725 463.745C850.725 463.745 849.822 537.009 935.014 568.025L945.517 547.758C945.517 547.758 889.034 525.183 850.725 463.745Z" fill="#D78776"/>
<path d="M959.484 425.853C964.551 429.473 970.828 430.858 976.941 432.048C977.875 432.232 978.818 432.376 979.772 432.437C974.767 429.596 969.156 424.499 965.895 416.919C963.423 411.134 962.992 405.38 963.484 400.447C958.418 401.288 953.73 404.816 952.428 409.77C950.848 415.801 954.418 422.242 959.484 425.853Z" fill="#D78776"/>
<path d="M985.337 429.641C985.419 429.436 985.634 429.313 985.675 429.087L985.665 428.369C987.47 420.605 985.07 412 979.501 406.287C976.875 403.599 973.48 401.63 969.859 400.728C969.993 404.779 970.659 409.302 972.68 414C975.901 421.549 981.152 426.41 985.337 429.641Z" fill="#D78776"/>
<path d="M965.899 416.932C969.171 424.512 974.781 429.61 979.776 432.451C980.586 432.912 981.417 433.456 982.176 433.784C987.735 436.266 991.581 436.01 991.786 435.097C992.135 434.194 989.181 432.594 985.345 429.64C981.15 426.41 975.909 421.548 972.689 414.009C970.668 409.312 970.001 404.789 969.868 400.737C969.601 392.368 971.817 386.152 970.545 385.639C969.745 385.157 966.904 387.773 964.883 393.516C964.186 395.445 963.745 397.875 963.488 400.46C962.996 405.383 963.427 411.148 965.899 416.932Z" fill="#263238"/>
<path d="M853.499 324.661C853.283 323.686 848.627 324.292 844.832 319.43C841.006 315.143 841.385 305.306 844.606 295.86C847.611 286.516 855.991 281.777 861.581 283.234C867.56 284.454 869.386 288.875 870.35 288.516C871.355 288.783 871.468 281.901 863.16 278.259C859.191 276.505 853.345 276.813 848.514 279.685C843.58 282.413 839.641 287.634 837.641 293.347C835.652 299.122 834.944 304.517 835.231 309.871C835.539 315.163 837.714 320.291 841.088 323.091C848.083 328.969 854.34 325.45 853.499 324.661Z" fill="#D78776"/>
<path d="M808.014 377.978C817.717 379.917 804.927 400.008 809.235 392.931C813.902 385.987 810.517 373.805 809.235 368.01C806.404 356.173 842.364 497.923 822.69 344.749C742.677 367.923 808.178 357.896 809.235 368.01C809.696 372.964 813.009 387.875 809.235 392.931C814.804 396.849 815.06 379.26 808.014 377.978C803.039 377.209 833.024 494.841 830.306 491.21C837.824 484.779 823.721 350.263 830.306 343.155C825.947 338.56 822.993 332.744 820.778 326.775C817.342 317.544 815.25 307.667 816.142 297.861C817.034 288.056 821.137 278.332 828.542 271.85C835.937 265.389 846.153 262.609 855.938 263.358C865.466 264.086 874.554 267.994 882.359 273.512C938.699 249.562 967.141 198.628 980.649 163.057C981.665 174.104 984.598 187.427 990.937 200.751C994.947 209.233 999.87 217.1 1006.05 222.977C1012.14 228.916 1019.61 232.403 1026.02 233.295C1027.76 233.542 1029.37 233.634 1030.87 233.624C1048.71 259.614 1069.02 282.528 1088.78 297.82C1086.98 284.558 1064.2 242.906 1062.42 229.644C1073.86 256.086 1089.68 289.994 1111.15 312.785C1105.46 310.949 1099.93 310.908 1096.03 311.81C1091.15 312.908 1088.64 314.928 1088.94 315.882C1089.48 317.964 1100.56 315.677 1111.71 321.226C1122.96 326.611 1128.01 336.755 1129.97 335.903C1130.9 335.555 1130.94 332.324 1128.78 327.79C1128.77 327.77 1128.75 327.749 1128.74 327.729C1130.03 328.57 1131.32 329.442 1132.64 330.19C1134.47 331.216 1136.4 332.211 1138.39 332.908C1138.57 333.801 1138.81 334.703 1139 335.596C1115.58 390.52 1088.18 449.814 1065.69 484.718C1012.95 566.587 945.489 547.735 945.489 547.735C945.489 547.735 939.725 559.869 931.181 578.064C936.197 580.608 941.51 582.526 947.223 583.418C973.562 587.562 999.881 570.515 1026.19 574.874C1071.72 582.423 1088.05 646.251 1132.29 659.379C1156.86 666.672 1183.32 655.81 1204.16 640.897C1213.09 634.507 1221.68 626.476 1227.5 617.255C1234.51 614.845 1240.52 611.562 1245.49 607.911C1259.54 597.47 1266.27 584.464 1268.71 573.449C1271.15 562.33 1268.99 553.253 1265.43 548.084C1261.87 542.812 1257.28 541.15 1253.05 541.396C1244.4 542.258 1236.12 548.238 1226.99 547.704C1222.67 547.663 1218.05 546.812 1215.32 544.278C1214.85 543.817 1214.58 543.273 1214.32 542.73L1214.29 540.514V540.391L1214.3 539.96L1214.43 538.781C1214.55 537.909 1214.93 536.412 1215.31 535.447C1215.79 534.083 1216.22 532.75 1216.75 531.54C1217.06 530.883 1217.31 530.36 1217.74 529.847L1217.77 529.816L1220.51 528.904L1220.88 528.77C1221.45 528.555 1221.8 528.442 1222.33 528.134C1223.26 527.611 1224.18 526.678 1225.35 525.539C1226.47 524.411 1227.89 523.15 1229.18 522.309C1232.59 519.201 1236.09 516.031 1239.64 512.801C1245.08 507.754 1252.46 501.2 1261.13 491.21C1269.67 481.2 1280.04 466.789 1286.08 447.312C1292.22 428.265 1292.25 407.588 1288.99 391.741C1285.84 375.628 1280.59 363.34 1275.73 353.34C1273.84 349.565 1272.01 346.181 1270.23 342.96C1270.81 327.175 1268.18 309.595 1260.17 293.205C1251.85 275.83 1239.51 262.465 1229.7 249.819C1224.94 243.901 1220.77 238.085 1217.2 232.393C1214.76 224.526 1212.74 217.418 1210.82 210.977C1210.57 200.402 1208.6 188.453 1204.91 177.14C1205.06 176.34 1205.14 175.765 1204.98 175.714C1204.93 175.694 1204.77 175.909 1204.58 176.217C1201.56 167.211 1197.46 158.668 1192.01 151.683C1178.11 126.144 1152.22 108.41 1126.12 94.7478C1101.96 82.1013 1075.9 71.4651 1048.64 70.8292C1034.63 70.501 1020.24 73.3012 1007.52 79.1578C911.088 29.9256 859.641 108.369 832.276 169.458C820.911 184.35 809.516 201.202 799.403 220.105C777.607 260.845 768.52 302.743 768.315 332.908C768.284 334.744 768.346 336.406 768.356 338.15C755.453 364.314 744.017 382.53 741.196 391.238C735.955 407.403 736.14 426.224 745.761 440.224C750.93 447.732 757.771 452.83 765.607 456.573L830.306 491.21C850.528 517.324 801.583 377.035 808.014 377.978ZM1027.08 228.188C1016.02 225.839 1004.83 213.89 997.624 197.602C989.08 179.725 986.249 162.483 985.039 150.565C985.521 149.057 985.983 147.601 986.403 146.195C995.388 173.448 1009.98 202.176 1027.24 228.218C1027.18 228.208 1027.13 228.208 1027.08 228.188ZM1214.37 544.904L1214.38 545.314V545.417V545.468L1214.37 544.832C1214.37 544.853 1214.37 544.884 1214.37 544.904ZM1215.16 530.74L1214.87 530.822L1215.54 530.606L1215.16 530.74ZM1225.81 252.886C1235.55 265.84 1247.53 279.133 1255.36 295.574C1261.51 308.138 1264.44 321.513 1265.18 334.19C1259.74 325.093 1255.17 318.405 1251.92 312.754C1239.96 292.333 1230.97 271.307 1224.6 254.168C1223.86 252.168 1223.25 250.373 1222.57 248.465C1223.67 249.942 1224.68 251.419 1225.81 252.886ZM804.141 222.659C810.162 211.387 816.645 200.853 823.26 190.935C818.532 202.812 814.809 213.028 811.896 220.085C808.255 228.895 804.316 240.803 800.326 254.25C800.326 254.27 800.316 254.291 800.306 254.311C798.859 259.183 797.403 264.281 795.957 269.491C788.921 292.497 780.49 312.754 772.336 330.016C773.997 300.682 783.454 261.358 804.141 222.659Z" fill="#391C13"/>
<path d="M1832.46 236.978C1813.35 347.084 1708.61 420.85 1598.51 401.742C1541.86 391.916 1494.87 359.382 1465.16 315.134L1369.29 329.996L1434.21 239.748C1429.86 216.619 1429.48 192.331 1433.74 167.777C1452.84 57.6812 1557.59 -16.0954 1667.7 3.01285C1777.8 22.1313 1851.57 126.873 1832.46 236.978Z" fill="#E8505B"/>
<path d="M1638.98 140.474L1637.76 264.601L1614.7 264.375L1615.22 211.174L1551.04 210.548L1550.51 263.75L1527.47 263.514L1528.69 139.387L1551.74 139.613L1551.24 190.855L1615.43 191.481L1615.93 140.238L1638.98 140.474Z" fill="white"/>
<path d="M1666.98 156.636C1667.06 150.103 1673.72 145.028 1682.63 145.1C1691.54 145.163 1698.07 150.04 1697.99 156.411C1697.91 163.259 1691.46 168.505 1682.35 168.433C1673.42 168.361 1666.9 163.169 1666.98 156.636ZM1669.96 182.021L1694.18 182.21L1693.16 265.277L1668.94 265.097L1669.96 182.021Z" fill="white"/>
<path d="M1716.3 252.776C1716.37 245.156 1722.46 239.186 1730.8 239.268C1738.95 239.35 1744.75 245.433 1744.68 253.053C1744.6 260.674 1738.7 266.838 1730.53 266.756C1722.19 266.674 1716.22 260.397 1716.3 252.776ZM1718.62 141.255L1744.87 141.512L1739.63 224.447L1722.08 224.273L1718.62 141.255Z" fill="white"/>
</svg>
