<svg width="4866" height="2932" viewBox="0 0 4866 2932" fill="none" xmlns="http://www.w3.org/2000/svg">
<g clip-path="url(#clip0_32_1774)">
<path d="M4865.88 1947.65L4828.22 2058.48L1235.84 2931.86L0.175338 2249.15V2156.04L4865.88 1947.65Z" fill="#856060"/>
<path d="M3577.18 1446.6L0.175323 2156.04L1235.84 2831.08L4865.88 1947.65L3577.18 1446.6Z" fill="#CCACA2"/>
<path d="M1142.75 2784.41C1141.48 2785 1161.74 2817.64 1188 2857.29C1214.27 2896.97 1236.58 2928.64 1237.85 2928.05C1239.12 2927.45 1218.86 2894.83 1192.59 2855.16C1166.35 2815.5 1144.03 2783.83 1142.75 2784.41Z" fill="#CCACA2"/>
<path d="M1024.69 2719.95C1023.42 2720.54 1043.68 2753.18 1069.94 2792.83C1096.21 2832.5 1118.52 2864.18 1119.79 2863.58C1121.06 2862.99 1100.8 2830.37 1074.53 2790.69C1048.29 2751.04 1025.97 2719.37 1024.69 2719.95Z" fill="#CCACA2"/>
<path d="M906.633 2655.5C905.361 2656.09 925.619 2688.73 951.877 2728.38C978.146 2768.05 1000.45 2799.72 1001.73 2799.13C1003 2798.54 982.741 2765.91 956.473 2726.24C930.225 2686.59 907.906 2654.91 906.633 2655.5Z" fill="#CCACA2"/>
<path d="M788.573 2591.04C787.3 2591.63 807.559 2624.27 833.817 2663.92C860.086 2703.59 882.395 2735.26 883.667 2734.67C884.94 2734.08 864.681 2701.45 838.413 2661.78C812.165 2622.13 789.845 2590.45 788.573 2591.04Z" fill="#CCACA2"/>
<path d="M670.513 2526.58C669.24 2527.17 689.499 2559.81 715.757 2599.46C742.025 2639.13 764.335 2670.8 765.607 2670.21C766.88 2669.62 746.621 2636.99 720.353 2597.32C694.105 2557.67 671.785 2525.99 670.513 2526.58Z" fill="#CCACA2"/>
<path d="M552.452 2462.12C551.179 2462.71 571.438 2495.34 597.696 2535C623.964 2574.67 646.274 2606.34 647.546 2605.75C648.819 2605.16 628.56 2572.53 602.292 2532.86C576.044 2493.2 553.724 2461.52 552.452 2462.12Z" fill="#CCACA2"/>
<path d="M434.392 2397.65C433.12 2398.25 453.379 2430.88 479.637 2470.54C505.905 2510.21 528.214 2541.88 529.487 2541.29C530.759 2540.7 510.5 2508.07 484.232 2468.4C457.984 2428.74 435.665 2397.06 434.392 2397.65Z" fill="#CCACA2"/>
<path d="M316.333 2333.19C315.06 2333.79 335.319 2366.42 361.577 2406.08C387.846 2445.75 410.155 2477.42 411.427 2476.83C412.7 2476.24 392.441 2443.61 366.172 2403.94C339.925 2364.28 317.605 2332.6 316.333 2333.19Z" fill="#CCACA2"/>
<path d="M198.282 2268.73C197.009 2269.32 217.268 2301.96 243.526 2341.62C269.795 2381.29 292.104 2412.96 293.376 2412.37C294.649 2411.77 274.39 2379.15 248.122 2339.48C221.864 2299.82 199.544 2268.15 198.282 2268.73Z" fill="#CCACA2"/>
<path d="M80.2224 2204.27C78.9499 2204.86 99.2091 2237.5 125.467 2277.15C151.735 2316.83 174.044 2348.5 175.317 2347.91C176.589 2347.31 156.33 2314.69 130.062 2275.02C103.804 2235.36 81.4848 2203.69 80.2224 2204.27Z" fill="#CCACA2"/>
<path d="M0.124651 2197.16C-1.14785 2197.75 10.6178 2217.55 26.3827 2241.37C42.1578 2265.21 55.9735 2284.05 57.246 2283.45C58.5185 2282.86 46.7629 2263.08 30.9778 2239.24C15.2128 2215.42 1.39716 2196.58 0.124651 2197.16Z" fill="#CCACA2"/>
<path d="M1267.45 2922.53C1267.97 2922.93 1276.03 2916.42 1288.38 2905.35C1300.74 2894.29 1317.32 2878.63 1334.85 2860.78C1352.39 2842.92 1367.56 2826.28 1378.15 2814.01C1388.73 2801.72 1394.81 2793.85 1394.24 2793.49C1393.65 2793.12 1386.52 2800.34 1375.19 2812.11C1362.76 2824.95 1347.58 2840.64 1330.79 2857.98C1313.7 2875.11 1298.25 2890.6 1285.6 2903.29C1273.98 2914.86 1266.89 2922.11 1267.45 2922.53Z" fill="#CCACA2"/>
<path d="M1433.99 2882.9C1434.51 2883.3 1442.57 2876.79 1454.92 2865.72C1467.27 2854.66 1483.86 2839 1501.39 2821.15C1518.93 2803.29 1534.1 2786.65 1544.68 2774.38C1555.28 2762.1 1561.35 2754.22 1560.78 2753.86C1560.18 2753.49 1553.06 2760.71 1541.72 2772.48C1529.29 2785.33 1514.11 2801.01 1497.33 2818.35C1480.24 2835.48 1464.79 2850.97 1452.13 2863.66C1440.52 2875.24 1433.43 2882.48 1433.99 2882.9Z" fill="#CCACA2"/>
<path d="M1600.52 2843.28C1601.05 2843.67 1609.11 2837.16 1621.46 2826.1C1633.81 2815.04 1650.39 2799.37 1667.93 2781.52C1685.46 2763.66 1700.64 2747.02 1711.22 2734.75C1721.8 2722.47 1727.88 2714.59 1727.32 2714.24C1726.71 2713.86 1719.59 2721.08 1708.26 2732.85C1695.83 2745.7 1680.65 2761.38 1663.87 2778.72C1646.78 2795.85 1631.33 2811.34 1618.67 2824.03C1607.06 2835.61 1599.97 2842.86 1600.52 2843.28Z" fill="#CCACA2"/>
<path d="M1767.06 2803.66C1767.57 2804.05 1775.64 2797.54 1787.99 2786.48C1800.35 2775.42 1816.93 2759.75 1834.47 2741.9C1852 2724.04 1867.18 2707.4 1877.77 2695.13C1888.35 2682.85 1894.43 2674.97 1893.86 2674.62C1893.27 2674.25 1886.14 2681.47 1874.82 2693.24C1862.39 2706.09 1847.21 2721.77 1830.42 2739.11C1813.33 2756.24 1797.88 2771.73 1785.23 2784.42C1773.59 2795.99 1766.5 2803.23 1767.06 2803.66Z" fill="#CCACA2"/>
<path d="M1933.59 2764.03C1934.1 2764.42 1942.17 2757.91 1954.52 2746.85C1966.87 2735.79 1983.46 2720.12 2001 2702.27C2018.54 2684.41 2033.7 2667.78 2044.29 2655.5C2054.88 2643.22 2060.96 2635.34 2060.39 2634.99C2059.8 2634.61 2052.67 2641.84 2041.33 2653.6C2028.9 2666.45 2013.72 2682.13 1996.94 2699.47C1979.85 2716.6 1964.4 2732.09 1951.74 2744.78C1940.12 2756.36 1933.04 2763.6 1933.59 2764.03Z" fill="#CCACA2"/>
<path d="M2100.12 2724.41C2100.65 2724.8 2108.71 2718.29 2121.06 2707.23C2133.41 2696.17 2149.99 2680.5 2167.52 2662.65C2185.07 2644.79 2200.24 2628.16 2210.82 2615.88C2221.4 2603.6 2227.48 2595.72 2226.92 2595.37C2226.32 2594.99 2219.19 2602.22 2207.87 2613.98C2195.44 2626.83 2180.26 2642.51 2163.47 2659.85C2146.39 2676.98 2130.93 2692.47 2118.28 2705.16C2106.66 2716.74 2099.58 2723.98 2100.12 2724.41Z" fill="#CCACA2"/>
<path d="M2266.66 2684.78C2267.17 2685.18 2275.24 2678.67 2287.59 2667.6C2299.95 2656.53 2316.53 2640.87 2334.06 2623.02C2351.6 2605.17 2366.77 2588.53 2377.36 2576.25C2387.94 2563.97 2394.02 2556.09 2393.45 2555.74C2392.86 2555.37 2385.73 2562.59 2374.41 2574.36C2361.98 2587.2 2346.8 2602.88 2330.01 2620.22C2312.92 2637.35 2297.47 2652.84 2284.82 2665.53C2273.19 2677.11 2266.1 2684.36 2266.66 2684.78Z" fill="#CCACA2"/>
<path d="M2433.19 2637.31C2433.72 2637.71 2441.78 2631.2 2454.13 2620.13C2466.48 2609.07 2483.06 2593.4 2500.6 2575.56C2518.14 2557.7 2533.31 2541.06 2543.89 2528.78C2554.49 2516.51 2560.56 2508.63 2559.99 2508.27C2559.4 2507.9 2552.26 2515.12 2540.94 2526.89C2528.51 2539.73 2513.33 2555.42 2496.55 2572.76C2479.46 2589.89 2464.01 2605.38 2451.35 2618.07C2439.73 2629.64 2432.64 2636.89 2433.19 2637.31Z" fill="#CCACA2"/>
<path d="M2618.57 2594.17C2619.08 2594.57 2627.15 2588.06 2639.5 2576.99C2651.85 2565.93 2668.44 2550.27 2685.97 2532.42C2703.51 2514.56 2718.68 2497.92 2729.26 2485.64C2739.86 2473.36 2745.93 2465.48 2745.36 2465.13C2744.77 2464.75 2737.64 2471.97 2726.32 2483.74C2713.88 2496.59 2698.7 2512.27 2681.92 2529.61C2664.83 2546.74 2649.38 2562.23 2636.73 2574.92C2625.1 2586.5 2618.01 2593.75 2618.57 2594.17Z" fill="#CCACA2"/>
<path d="M2803.94 2551.03C2804.46 2551.43 2812.52 2544.92 2824.87 2533.85C2837.23 2522.79 2853.81 2507.12 2871.34 2489.27C2888.88 2471.42 2904.05 2454.78 2914.64 2442.5C2925.23 2430.22 2931.3 2422.34 2930.73 2421.99C2930.13 2421.62 2923.01 2428.84 2911.69 2440.61C2899.25 2453.45 2884.08 2469.13 2867.29 2486.47C2850.2 2503.6 2834.75 2519.09 2822.1 2531.79C2810.47 2543.36 2803.39 2550.61 2803.94 2551.03Z" fill="#CCACA2"/>
<path d="M2990.46 2500.92C2990.98 2501.32 2999.05 2494.81 3011.4 2483.74C3023.75 2472.68 3040.33 2457.02 3057.86 2439.17C3075.41 2421.31 3090.58 2404.67 3101.16 2392.4C3111.74 2380.12 3117.82 2372.24 3117.26 2371.89C3116.66 2371.52 3109.53 2378.74 3098.2 2390.51C3085.77 2403.35 3070.59 2419.04 3053.8 2436.38C3036.72 2453.51 3021.26 2469 3008.61 2481.69C2997.01 2493.26 2989.92 2500.5 2990.46 2500.92Z" fill="#CCACA2"/>
<path d="M3176.99 2457.21C3177.51 2457.61 3185.58 2451.1 3197.93 2440.03C3210.28 2428.97 3226.86 2413.31 3244.4 2395.46C3261.94 2377.6 3277.11 2360.96 3287.69 2348.67C3298.28 2336.4 3304.36 2328.52 3303.79 2328.16C3303.18 2327.79 3296.06 2335.01 3284.73 2346.78C3272.3 2359.62 3257.12 2375.31 3240.34 2392.65C3223.25 2409.78 3207.8 2425.27 3195.14 2437.96C3183.53 2449.53 3176.44 2456.79 3176.99 2457.21Z" fill="#CCACA2"/>
<path d="M3364.67 2411.28C3365.18 2411.67 3373.25 2405.16 3385.6 2394.1C3397.96 2383.04 3414.54 2367.37 3432.08 2349.52C3449.62 2331.66 3464.79 2315.02 3475.38 2302.75C3485.96 2290.47 3492.04 2282.59 3491.47 2282.24C3490.87 2281.86 3483.75 2289.08 3472.42 2300.85C3459.99 2313.7 3444.81 2329.38 3428.02 2346.72C3410.93 2363.85 3395.48 2379.34 3382.83 2392.03C3371.2 2403.61 3364.11 2410.85 3364.67 2411.28Z" fill="#CCACA2"/>
<path d="M3545.44 2368.75C3545.96 2369.14 3554.02 2362.63 3566.37 2351.57C3578.72 2340.51 3595.31 2324.84 3612.84 2306.99C3630.38 2289.14 3645.55 2272.5 3656.13 2260.22C3666.72 2247.93 3672.8 2240.06 3672.23 2239.71C3671.64 2239.34 3664.51 2246.56 3653.18 2258.33C3640.75 2271.17 3625.57 2286.85 3608.79 2304.19C3591.7 2321.32 3576.25 2336.81 3563.59 2349.5C3551.97 2361.07 3544.89 2368.32 3545.44 2368.75Z" fill="#CCACA2"/>
<path d="M3730.81 2328.17C3731.32 2328.57 3739.39 2322.06 3751.74 2310.99C3764.09 2299.93 3780.68 2284.26 3798.21 2266.42C3815.75 2248.56 3830.92 2231.92 3841.5 2219.63C3852.1 2207.36 3858.17 2199.48 3857.6 2199.12C3857 2198.75 3849.88 2205.97 3838.56 2217.74C3826.12 2230.58 3810.94 2246.27 3794.16 2263.61C3777.07 2280.74 3761.62 2296.23 3748.97 2308.92C3737.35 2320.5 3730.26 2327.75 3730.81 2328.17Z" fill="#CCACA2"/>
<path d="M3893.71 2282.68C3894.22 2283.07 3902.29 2276.56 3914.64 2265.5C3926.99 2254.44 3943.58 2238.77 3961.11 2220.92C3978.64 2203.06 3993.82 2186.42 4004.41 2174.15C4015 2161.87 4021.07 2153.99 4020.5 2153.64C4019.91 2153.26 4012.78 2160.48 4001.46 2172.25C3989.02 2185.1 3973.84 2200.78 3957.06 2218.12C3939.97 2235.25 3924.52 2250.74 3911.87 2263.43C3900.24 2275 3893.16 2282.25 3893.71 2282.68Z" fill="#CCACA2"/>
<path d="M4056.61 2237.17C4057.13 2237.57 4065.19 2231.06 4077.54 2219.99C4089.9 2208.93 4106.48 2193.26 4124.01 2175.42C4141.54 2157.56 4156.72 2140.92 4167.31 2128.64C4177.9 2116.37 4183.97 2108.49 4183.4 2108.13C4182.81 2107.76 4175.68 2114.98 4164.36 2126.75C4151.92 2139.59 4136.75 2155.28 4119.96 2172.62C4102.87 2189.75 4087.42 2205.24 4074.77 2217.93C4063.14 2229.5 4056.05 2236.75 4056.61 2237.17Z" fill="#CCACA2"/>
<path d="M4204.31 2203.36C4204.83 2203.76 4212.89 2197.25 4225.25 2186.18C4237.6 2175.12 4254.18 2159.45 4271.71 2141.6C4289.25 2123.75 4304.42 2107.11 4315.01 2094.83C4325.6 2082.55 4331.67 2074.67 4331.11 2074.32C4330.5 2073.95 4323.38 2081.17 4312.05 2092.94C4299.62 2105.78 4284.44 2121.46 4267.65 2138.81C4250.56 2155.93 4235.11 2171.42 4222.46 2184.12C4210.84 2195.69 4203.75 2202.94 4204.31 2203.36Z" fill="#CCACA2"/>
<path d="M4373.56 2164.63C4374.08 2165.02 4382.15 2158.51 4394.5 2147.45C4406.85 2136.39 4423.43 2120.72 4440.97 2102.87C4458.51 2085.01 4473.68 2068.37 4484.26 2056.1C4494.85 2043.82 4500.92 2035.94 4500.36 2035.59C4499.75 2035.21 4492.63 2042.43 4481.3 2054.2C4468.87 2067.05 4453.69 2082.73 4436.91 2100.07C4419.82 2117.2 4404.37 2132.69 4391.71 2145.38C4380.1 2156.96 4373.02 2164.21 4373.56 2164.63Z" fill="#CCACA2"/>
<path d="M4527.63 2127.15C4528.15 2127.55 4536.21 2121.04 4548.56 2109.97C4560.91 2098.91 4577.5 2083.25 4595.03 2065.4C4612.57 2047.54 4627.74 2030.9 4638.32 2018.63C4648.91 2006.34 4654.99 1998.47 4654.42 1998.11C4653.83 1997.74 4646.7 2004.96 4635.38 2016.73C4622.94 2029.58 4607.76 2045.26 4590.98 2062.6C4573.89 2079.73 4558.44 2095.22 4545.79 2107.91C4534.16 2119.49 4527.07 2126.73 4527.63 2127.15Z" fill="#CCACA2"/>
<path d="M4701.72 2081.66C4702.24 2082.06 4710.3 2075.55 4722.65 2064.48C4735 2053.42 4751.59 2037.75 4769.12 2019.9C4786.66 2002.05 4801.83 1985.41 4812.42 1973.13C4823.01 1960.85 4829.08 1952.97 4828.51 1952.62C4827.92 1952.25 4820.79 1959.47 4809.46 1971.24C4797.02 1984.08 4781.85 1999.76 4765.06 2017.1C4747.97 2034.23 4732.52 2049.72 4719.87 2062.41C4708.25 2073.99 4701.16 2081.24 4701.72 2081.66Z" fill="#CCACA2"/>
<path d="M4125.51 2016.66C4196.85 1991.05 4205 1908.72 4138.92 1874.63C4099.26 1854.17 4046.59 1836.73 3978.58 1831.86C3906.18 1826.66 3846.6 1840.19 3800.5 1859.04C3730.91 1887.47 3729.24 1979.9 3807.78 2012.17C3920.62 2058.53 4015.96 2055.97 4125.51 2016.66Z" fill="#E8505B"/>
<path d="M4008.98 880.786C4008.98 880.786 4005.76 880.422 3998.68 879.83C3991.34 879.255 3980.49 878.393 3965.67 877.226L3964.98 877.167L3964.96 877.767C3961.93 988.595 3954.23 1388.83 3946.07 1864.91C3946.05 1865.91 3946.04 1866.9 3946.02 1867.81L3945.98 1869.87L3948.44 1870.04C3961.18 1870.92 3973.72 1871.79 3985.42 1872.6L3988.22 1872.79L3988.27 1870.45C3994.35 1595.16 3999.81 1347.52 4003.77 1168.54C4005.54 1079.44 4006.96 1007.42 4007.95 957.523C4008.36 932.852 4008.69 913.65 4008.91 900.452C4008.98 894.077 4009.03 889.182 4009.07 885.698C4009.07 882.401 4008.98 880.786 4008.98 880.786C4008.98 880.786 4008.81 882.604 4008.67 886.002C4008.54 889.545 4008.35 894.534 4008.12 901.035C4007.72 914.344 4007.13 933.706 4006.37 958.589C4005 1008.6 4003.03 1080.77 4000.59 1170.08C3996.1 1348.65 3989.9 1595.72 3983 1870.38L3985.85 1868.24C3974.16 1867.43 3961.61 1866.55 3948.87 1865.68L3951.28 1867.9C3951.3 1866.99 3951.31 1865.99 3951.33 1865C3959.49 1388.91 3965.52 988.655 3966.29 877.801L3965.57 878.342C3980.25 879.213 3991 879.856 3998.27 880.287C4005.42 880.676 4008.98 880.786 4008.98 880.786Z" fill="white"/>
<path d="M4080.43 974.476C4080.43 974.476 4078.72 973.402 4075.1 971.347C4071.31 969.225 4065.93 966.198 4058.92 962.267C4044.43 954.217 4023.33 942.482 3996.16 927.39C3941.25 897.019 3861.97 853.163 3763.85 798.891C3566.65 690.218 3293.81 539.863 2990.56 372.759L2988.31 371.516L2986.89 373.435C2979.47 383.446 2971.48 394.26 2963.46 405.107C2962.63 406.232 2961.8 407.348 2961.02 408.396L2959.66 410.231L2961.83 411.406C3496.27 700.474 3943.92 941.738 4059.94 1003.34L4060.48 1003.63L4060.79 1003.17C4067.51 993.449 4072.44 986.287 4075.82 981.417C4079.04 976.691 4080.43 974.476 4080.43 974.476C4080.43 974.476 4078.62 976.775 4075.2 981.434C4071.74 986.186 4066.66 993.161 4059.75 1002.65L4060.6 1002.48C3945.83 939.252 3499.12 696.78 2964.68 407.703L2965.49 410.713C2966.26 409.665 2967.09 408.548 2967.92 407.424C2975.95 396.576 2983.94 385.771 2991.35 375.752L2987.67 376.436C3290.75 542.62 3563.45 692.138 3760.54 800.21C3859.24 854.127 3938.99 897.696 3994.24 927.872C4021.8 942.854 4043.22 954.496 4057.91 962.495C4065.14 966.384 4070.68 969.369 4074.58 971.474C4078.36 973.461 4080.43 974.476 4080.43 974.476Z" fill="white"/>
<path d="M3935.31 952.366C3934.31 978.39 3958.7 1000.16 3989.78 1001C4020.87 1001.84 4046.87 981.417 4047.87 955.393C4048.87 929.368 4024.48 907.597 3993.4 906.76C3962.31 905.931 3936.31 926.341 3935.31 952.366Z" fill="#E8505B"/>
<path d="M3031.41 448.676C3031.41 448.676 3166.44 512.892 3072.84 782.996C3072.84 782.996 2703.93 779.123 2565.98 602.743C2565.98 602.743 2697.83 373.047 2863.39 395.681L3031.41 448.676Z" fill="#E8505B"/>
<path d="M3027.19 400.736L3056.71 335.945C3069.91 306.97 3050.25 274.79 3014.45 266.809C2983.68 259.952 2951.69 273.564 2940.18 298.405L2907.04 369.884L3027.19 400.736Z" fill="#E8505B"/>
<path d="M3031.41 448.676L3029.04 396.678L2913.53 355.874L2863.39 395.689L3031.41 448.676Z" fill="white"/>
<path d="M3760.57 1889.95C3760.39 1889.96 3760.4 1891.56 3760.59 1894.62C3760.66 1897.69 3761.37 1902.19 3762.6 1907.94C3765.34 1919.31 3771.74 1935.93 3787.09 1952.69C3802.23 1969.45 3826.48 1985.41 3857 1996.17C3887.49 2007.09 3923.75 2012.74 3961.68 2014.01C3980.66 2014.63 3999.2 2014.35 4017.05 2013.54C4034.89 2012.72 4052.16 2011.34 4068.39 2008.67C4100.83 2003.55 4129.01 1992.4 4147.04 1977.58C4165.47 1963.09 4174.13 1946.8 4177.11 1935.43C4178.59 1929.69 4178.97 1925.13 4178.95 1922.06C4178.84 1918.98 4178.7 1917.39 4178.52 1917.39C4177.89 1917.36 4178.62 1923.9 4175.12 1935.01C4171.61 1945.98 4162.7 1961.52 4144.5 1975.29C4126.71 1989.35 4099.38 1999.85 4067.49 2004.68C4051.55 2007.19 4034.5 2008.47 4016.79 2009.22C3999.05 2009.97 3980.67 2010.21 3961.9 2009.6C3924.41 2008.34 3888.81 2002.89 3858.88 1992.42C3828.92 1982.08 3805.14 1966.83 3790.02 1950.75C3774.72 1934.68 3767.9 1918.64 3764.6 1907.55C3761.46 1896.36 3761.13 1889.91 3760.57 1889.95Z" fill="#455A64"/>
<path d="M2622.97 546.948C2622.85 547.058 2624.05 548.183 2626.46 550.212C2629.35 552.563 2632.9 555.454 2637.2 558.963C2641.86 562.776 2647.67 567.325 2654.78 572.288C2661.84 577.285 2669.67 583.212 2679 589.046C2688.16 595.066 2698.26 601.602 2709.59 608.044C2720.66 614.825 2733.12 621.251 2746.12 628.176C2772.5 641.501 2802.41 654.927 2834.99 666.908C2867.69 678.677 2899.83 687.843 2929.47 694.894C2944.39 698.124 2958.52 701.371 2971.98 703.527C2985.34 706.072 2997.93 707.796 3009.45 709.293C3020.91 711.026 3031.42 711.77 3040.6 712.683C3049.77 713.656 3057.72 714.112 3064.23 714.357C3070.22 714.603 3075.16 714.797 3079.19 714.958C3082.62 715.042 3084.41 715.017 3084.42 714.865C3084.43 714.713 3082.66 714.442 3079.26 714.07C3075.27 713.69 3070.37 713.216 3064.41 712.65C3057.95 712.134 3050.06 711.44 3040.96 710.24C3031.85 709.098 3021.43 708.143 3010.05 706.224C2998.64 704.533 2986.16 702.647 2972.92 699.959C2959.57 697.667 2945.58 694.311 2930.79 690.988C2901.43 683.759 2869.56 674.551 2837.1 662.867C2804.76 650.962 2774.99 637.747 2748.64 624.701C2735.67 617.911 2723.18 611.638 2712.09 605.034C2700.7 598.761 2690.54 592.411 2681.28 586.577C2671.85 580.929 2663.9 575.197 2656.69 570.403C2649.43 565.642 2643.44 561.297 2638.58 557.695C2634.02 554.44 2630.26 551.751 2627.2 549.569C2624.55 547.743 2623.09 546.838 2622.97 546.948Z" fill="white"/>
<path d="M1804.94 2689.51C1739.07 2689.21 1674.3 2660.42 1637.1 2614.91C1620.05 2594.05 1607.15 2568.89 1580.69 2556.71C1538.05 2537.1 1487.09 2560.98 1443.35 2578.82C1353.47 2615.46 1242.75 2626.14 1154.78 2586.4C1109.31 2565.85 1071.86 2533.01 1023.17 2518.52C978.903 2505.34 930.346 2508.81 883.607 2512.88C836.878 2516.95 788.623 2521.33 743.722 2509.75C698.821 2498.18 657.828 2466.05 656.778 2426.72C655.808 2390.43 689.297 2358.34 729.038 2343.84C768.778 2329.34 813.649 2329.07 856.955 2330.78C1098.57 2340.33 1335.82 2404.06 1577.47 2395.09C1624.72 2393.34 1675.82 2389.58 1715.61 2410.98C1767.51 2438.9 1778.98 2497.64 1780.83 2549.25C1782.69 2600.87 1781.96 2657.61 1821.7 2697.11" fill="#937474"/>
<path d="M1815.43 2207.35C1818.98 2211.31 1836.19 2239.88 1837.86 2244.63C1847.32 2271.35 1882.14 2366.4 1837.66 2416.05C1787.49 2472.08 1504.41 2470.51 1481.69 2470.3C1480.72 2470.29 1479.78 2470.26 1478.82 2470.2L1067.38 2445.9C1063.03 2445.65 1058.74 2444.91 1054.61 2443.72L701.669 2342.04C693.115 2339.58 685.52 2335.22 679.693 2329.44C661.585 2311.48 664.625 2284.58 686.429 2269.78L950.595 2090.6C956.069 2086.89 962.371 2084.19 969.178 2082.67C1018.38 2071.77 1234.4 2029.61 1481.01 2067.86C1648 2093.77 1731.85 2113.89 1815.43 2207.35Z" fill="#B27842"/>
<path d="M715.717 2335.76C736.461 2347.28 742.571 2373.72 728.462 2390.87C711.91 2411.01 674.865 2413.53 649.961 2400.78C625.056 2388.03 611.109 2364.07 605.393 2340.11C601.363 2323.24 601.878 2303.4 617.037 2291.79C627.358 2283.88 642.063 2281.72 655.929 2280.16C695.236 2275.75 734.885 2273.47 774.545 2273.33" fill="#B27842"/>
<g opacity="0.3">
<path d="M842.988 2283.28C815.457 2291.3 756.771 2306.57 727.634 2307.33C698.498 2308.09 667.574 2300.36 649.012 2281.54C645.901 2278.38 643.073 2274.89 638.953 2272.67C634.832 2270.46 628.884 2269.94 625.359 2272.77C620.824 2276.43 622.895 2282.79 625.793 2287.47C642.417 2314.33 677.279 2332.58 713.404 2333.32C749.519 2334.06 824.819 2309.43 842.988 2283.28Z" fill="black"/>
</g>
<path d="M837.534 2004.09C837.534 2004.09 1004 2023.83 958.048 2175.76C912.097 2327.69 727.967 2320.77 695.145 2316.86C686.934 2315.88 676.512 2312.28 665.291 2306.82C615.219 2282.46 583.316 2238.45 577.125 2190.24L576.186 2182.96L479.324 2106.73C479.324 2106.73 507.289 2093.99 606.564 2103.46L727.796 2025.37C727.796 2025.37 713.707 1930.82 728.503 1923.76C743.298 1916.7 837.534 2004.09 837.534 2004.09Z" fill="#B27842"/>
<path d="M1840.34 2265.6C1870.29 2310.01 1859.26 2365.04 1847.96 2415.17C1836.66 2465.29 1827.03 2520.83 1859.03 2564.23C1882.73 2596.35 1928.42 2616.15 1973.43 2613.78C2011.96 2611.75 2046.83 2595.17 2082.67 2583.18C2118.51 2571.19 2160.9 2564.02 2194.45 2580C2230.19 2597.04 2243.99 2637.22 2232.62 2670.31C2221.25 2703.41 2189.36 2729.36 2153.23 2745.82C2077.45 2780.35 1981.04 2776.95 1904.72 2743.25C1828.4 2709.56 1772.14 2648.1 1744.61 2579.65C1717.08 2511.19 1716.86 2436.3 1735.11 2365.7" fill="#B27842"/>
<path d="M772.444 2151.27L768.93 2193L728.25 2179.56C728.25 2179.56 743.217 2153.96 772.444 2151.27Z" fill="#263238"/>
<g opacity="0.3">
<path d="M1296.76 2461.6C1269.11 2453.58 1249.9 2430.45 1246.05 2406.16C1242.2 2381.87 1252.12 2357.01 1268.85 2336.91C1306.71 2291.42 1381.27 2270 1444.51 2286.43C1456.37 2289.51 1469.19 2295.1 1472.11 2305.2C1474.47 2313.37 1469.24 2321.97 1461.77 2327.59C1454.29 2333.2 1444.84 2336.53 1435.83 2340.24C1372.37 2366.4 1324.39 2417.52 1309.04 2475.33" fill="black"/>
</g>
<path d="M1518.62 2273.96C1456.37 2265.11 1389.52 2283.32 1345.43 2321.15C1301.33 2358.99 1281.21 2415.39 1293.32 2467.27C1267.75 2473.94 1240.22 2468.85 1213.88 2464.78C1187.54 2460.7 1158.83 2457.99 1135.26 2468.64C1111.69 2479.3 1098.98 2508.66 1117.53 2524.84C1127.01 2533.12 1141.39 2535.65 1154.85 2537.78C1229.17 2549.54 1306.27 2561.26 1379.69 2546.02C1423.35 2536.96 1463.4 2518.77 1502.91 2500.76C1546.69 2480.79 1542.73 2488.15 1586.51 2468.19" fill="#B27842"/>
<g opacity="0.3">
<path d="M807.166 2366.46C820.587 2363.77 834.009 2361.07 847.431 2358.38C866.327 2354.59 885.536 2350.7 902.351 2342.55C919.166 2334.39 933.557 2321.21 936.951 2305.18C939.799 2291.73 932.174 2275.59 916.389 2272.12C903.896 2269.37 891.211 2275.1 880.102 2280.62C848.683 2296.24 817.255 2311.86 785.836 2327.48C778.938 2330.91 771.616 2334.73 768.405 2340.87C764.102 2349.11 768.98 2359.22 777.474 2364.72C785.967 2370.23 797.147 2371.91 807.893 2372.05" fill="black"/>
</g>
<path d="M1104.7 2323.24C1102.18 2359.66 1077.45 2393.75 1042.58 2415.61C1007.71 2437.48 963.572 2447.69 920.004 2447.98C876.365 2448.27 831.464 2439.23 789.845 2450.2C762.9 2457.31 739.783 2472.3 713.101 2480.07C686.419 2487.84 651.536 2485.7 636.71 2465.57C623.086 2447.07 633.59 2421.54 653.172 2407.29C672.755 2393.05 698.932 2387.32 724.099 2382.03C762.406 2373.97 800.712 2365.92 839.029 2357.86C862.701 2352.88 887.101 2347.61 906.471 2335.17C925.832 2322.74 938.961 2301.1 931.558 2281.63" fill="#B27842"/>
<path d="M723.119 2218.05C722.837 2218.38 730.825 2221.56 744.186 2219.31C750.65 2218.05 758.568 2215.59 764.89 2209.68C767.9 2206.74 770.414 2202.56 770.02 2197.89C769.697 2193.48 766.819 2188.4 760.769 2186.42L758.659 2190.44C759.669 2190.8 760.709 2191.29 761.84 2191.61C772.232 2194.99 783.432 2194.24 792.118 2191.02C800.975 2187.82 806.873 2182.05 810.125 2176.86C816.608 2166.02 813.801 2158.24 813.387 2158.5C812.417 2158.41 813.609 2165.9 806.883 2175.32C803.51 2179.87 798.026 2184.7 790.219 2187.29C782.523 2189.92 772.687 2190.42 763.749 2187.5C762.779 2187.22 761.881 2186.8 761.012 2186.5L758.901 2190.52C762.395 2191.59 764.627 2194.95 764.92 2198.19C765.284 2201.45 763.607 2204.59 761.214 2207.1C756.235 2212.15 749.115 2214.86 743.298 2216.34C731.25 2219.2 723.21 2217.27 723.119 2218.05Z" fill="#263238"/>
<path d="M635.741 2212.3C635.488 2212.8 639.023 2214.8 645.668 2216.08C652.222 2217.36 662.059 2217.62 671.987 2214.49C681.955 2211.41 689.095 2205.57 692.771 2200.81C696.508 2195.99 697.194 2192.42 696.599 2192.25C695.851 2191.99 693.973 2194.99 689.812 2198.93C685.691 2202.84 678.996 2207.63 670.139 2210.38C652.061 2216.06 636.034 2211.02 635.741 2212.3Z" fill="#263238"/>
<path d="M956.119 2020.04C955.685 2019.72 923.458 2050.39 884.152 2088.54C844.836 2126.7 813.326 2157.88 813.771 2158.2C814.205 2158.51 846.431 2127.85 885.748 2089.69C925.044 2051.55 956.564 2020.36 956.119 2020.04Z" fill="#263238"/>
<path d="M911.026 1974.36C910.501 1974.15 888.04 2012.31 860.863 2059.57C833.676 2106.85 812.063 2145.35 812.589 2145.55C813.114 2145.76 835.574 2107.61 862.762 2060.33C889.939 2013.07 911.551 1974.58 911.026 1974.36Z" fill="#263238"/>
<path d="M1117.9 2527.08C1118.35 2527.14 1118.08 2522.87 1121.76 2517.14C1125.29 2511.47 1133.35 2504.81 1144.53 2501.63C1155.76 2498.5 1166.78 2498.76 1174.55 2499.1C1182.36 2499.5 1187.21 2499.98 1187.25 2499.71C1187.27 2499.59 1186.09 2499.33 1183.92 2498.98C1181.75 2498.63 1178.6 2498.21 1174.66 2497.86C1166.86 2497.2 1155.57 2496.71 1143.84 2499.98C1132.1 2503.32 1123.79 2510.49 1120.42 2516.58C1118.7 2519.64 1117.97 2522.33 1117.81 2524.2C1117.63 2526.05 1117.78 2527.08 1117.9 2527.08Z" fill="#263238"/>
<path d="M1113.45 2497.42C1113.82 2497.53 1114.93 2493.81 1118.91 2488.79C1122.78 2483.82 1130.1 2477.67 1140.4 2474.65C1150.72 2471.65 1161.02 2472.67 1167.74 2474.55C1174.58 2476.41 1178.21 2478.75 1178.42 2478.47C1178.49 2478.38 1177.68 2477.72 1175.99 2476.73C1174.3 2475.73 1171.69 2474.48 1168.23 2473.37C1161.42 2471.12 1150.61 2469.82 1139.71 2472.98C1128.84 2476.18 1121.33 2482.81 1117.66 2488.12C1115.77 2490.8 1114.65 2493.13 1114.07 2494.79C1113.48 2496.44 1113.32 2497.4 1113.45 2497.42Z" fill="#263238"/>
<path d="M1721.7 2285.49C1721.13 2285.72 1730.77 2292.49 1735.57 2307.89C1737.95 2315.47 1738.99 2324.91 1737.86 2335.25C1736.76 2345.61 1733.37 2356.76 1729.33 2368.32C1725.28 2379.91 1721.18 2390.95 1718.85 2401.31C1716.5 2411.66 1715.9 2421.23 1716.78 2429.18C1717.68 2437.14 1719.92 2443.41 1722.03 2447.49C1724.13 2451.59 1725.89 2453.59 1725.89 2453.59C1726.1 2453.49 1724.62 2451.36 1722.78 2447.24C1720.93 2443.13 1718.96 2436.92 1718.26 2429.08C1717.58 2421.24 1718.32 2411.83 1720.75 2401.62C1723.15 2391.4 1727.29 2380.42 1731.35 2368.82C1735.4 2357.22 1738.78 2345.94 1739.79 2335.38C1740.83 2324.86 1739.62 2315.25 1737 2307.56C1734.37 2299.86 1730.5 2294.12 1727.27 2290.59C1724.05 2287.02 1721.7 2285.49 1721.7 2285.49Z" fill="#263238"/>
<path d="M1078.79 2275.18C1078.72 2275.19 1078.76 2275.82 1078.92 2276.99C1079.16 2278.61 1079.4 2280.29 1079.66 2282.09C1080.46 2286.5 1081.05 2292.95 1081.19 2300.9C1081.41 2308.85 1080.62 2318.33 1078.75 2328.72C1076.65 2339.08 1073.33 2350.33 1068.29 2361.71C1063.08 2373.04 1056.69 2383.32 1050.08 2392.27C1043.27 2401.1 1036.38 2408.65 1029.92 2414.5C1023.54 2420.38 1018.01 2424.9 1013.93 2427.75C1012.3 2428.96 1010.8 2430.09 1009.34 2431.17C1008.3 2431.97 1007.79 2432.41 1007.83 2432.46C1007.83 2432.46 1017.83 2427 1031.03 2415.33C1037.67 2409.55 1044.75 2402.01 1051.72 2393.14C1058.47 2384.16 1065 2373.79 1070.26 2362.34C1075.35 2350.84 1078.65 2339.45 1080.67 2328.98C1082.45 2318.47 1083.1 2308.89 1082.67 2300.87C1082 2284.81 1078.79 2275.18 1078.79 2275.18Z" fill="#263238"/>
<path d="M749.226 2377.69C749.307 2377.84 752.337 2376.7 757.952 2374.99C763.567 2373.26 771.828 2371.07 782.23 2368.99C802.914 2364.47 832.696 2362.34 864.024 2353.66C879.557 2349.17 893.736 2342.92 904.452 2334.89C915.167 2326.89 922.317 2317.55 926.216 2309.1C930.094 2300.6 930.851 2293.12 930.427 2288.09C930.013 2283.03 928.861 2280.38 928.861 2280.38C928.114 2280.22 932.952 2291.84 924.842 2308.64C920.853 2316.85 913.723 2325.91 903.179 2333.68C892.646 2341.45 878.698 2347.56 863.348 2351.99C832.414 2360.58 802.601 2362.93 781.887 2367.78C771.475 2370.03 763.224 2372.41 757.669 2374.34C752.094 2376.26 749.226 2377.69 749.226 2377.69Z" fill="#263238"/>
<path d="M647.315 2478.54C647.638 2478.69 649.698 2475.48 653.94 2470.87C658.161 2466.26 664.857 2460.41 673.654 2455.47C682.48 2450.57 691.509 2447.63 698.215 2446.14C704.931 2444.64 709.263 2444.28 709.223 2443.97C709.213 2443.85 708.122 2443.85 706.143 2443.93C704.163 2443.99 701.325 2444.32 697.861 2444.94C690.933 2446.14 681.551 2448.97 672.492 2454.01C663.453 2459.07 656.737 2465.24 652.748 2470.13C650.738 2472.58 649.284 2474.65 648.456 2476.15C647.597 2477.65 647.183 2478.49 647.315 2478.54Z" fill="#263238"/>
<path d="M625.682 2452.62C626.036 2452.72 627.156 2449.31 630.681 2444.59C634.135 2439.9 640.457 2433.97 649.546 2430.28C658.646 2426.61 668.129 2426.15 674.663 2426.81C681.268 2427.43 685.156 2428.83 685.288 2428.52C685.338 2428.42 684.429 2427.98 682.662 2427.37C680.905 2426.76 678.249 2426.06 674.865 2425.57C668.17 2424.58 658.201 2424.83 648.627 2428.69C639.063 2432.57 632.62 2438.94 629.398 2443.96C627.752 2446.47 626.752 2448.65 626.227 2450.18C625.702 2451.72 625.561 2452.6 625.682 2452.62Z" fill="#263238"/>
<path d="M654.828 2330.53C654.929 2330.91 661.484 2328.84 672.482 2328.69C683.339 2328.49 698.932 2330.78 712.626 2338.96C719.534 2342.88 725.19 2347.67 728.916 2352.8C732.633 2357.94 734.299 2363.3 734.804 2367.83C735.794 2376.97 733.37 2382.6 733.956 2382.66C733.956 2382.66 736.905 2377.19 736.289 2367.72C735.956 2363.04 734.38 2357.4 730.583 2351.97C726.775 2346.56 720.918 2341.53 713.818 2337.51C699.709 2329.09 683.49 2326.91 672.441 2327.44C666.836 2327.65 662.382 2328.44 659.383 2329.15C656.373 2329.85 654.788 2330.44 654.828 2330.53Z" fill="#263238"/>
<path d="M666.342 2354.6C666.18 2354.7 668.462 2357.16 673.764 2359.24C678.925 2361.31 687.54 2362.58 695.993 2359.74C704.426 2356.84 709.536 2350.89 711.515 2346.4C713.596 2341.82 713.161 2338.72 712.97 2338.74C712.586 2338.7 712.465 2341.7 710.142 2345.91C707.92 2350.06 702.962 2355.44 695.205 2358.11C687.429 2360.73 679.39 2359.77 674.34 2358.09C669.179 2356.43 666.584 2354.36 666.342 2354.6Z" fill="#263238"/>
<path d="M673.744 2375.44C673.623 2375.59 676.754 2377.67 682.813 2379.36C688.792 2381.07 697.932 2382.05 707.425 2379.84C716.919 2377.63 724.14 2372.82 728.199 2368.78C732.34 2364.71 733.744 2361.57 733.552 2361.5C733.239 2361.34 731.381 2364.22 727.099 2367.94C722.887 2371.64 715.868 2376.04 706.86 2378.14C697.841 2380.24 689.125 2379.5 683.237 2378.16C677.289 2376.84 673.916 2375.17 673.744 2375.44Z" fill="#263238"/>
<path d="M631.681 2431.21C632.136 2431.46 634.832 2424.86 644.184 2417.48C653.405 2410 669.261 2402.99 687.48 2396.93C705.759 2390.93 722.655 2386.14 734.794 2382.51C739.854 2381.01 744.611 2379.59 749.186 2378.22C752.569 2377.18 754.427 2376.55 754.387 2376.44C754.347 2376.32 752.397 2376.73 748.933 2377.57C744.288 2378.77 739.46 2380.01 734.33 2381.33C722.049 2384.66 705.093 2389.25 686.702 2395.29C668.402 2401.37 652.334 2408.68 643.164 2416.58C638.549 2420.45 635.559 2424.15 633.903 2426.87C632.196 2429.57 631.681 2431.21 631.681 2431.21Z" fill="#263238"/>
<path d="M775.999 2303.31C775.999 2303.31 787.765 2298.99 805.035 2287.99C822.173 2277.07 844.593 2258.7 861.418 2232.17L859.57 2231.57C855.622 2244.19 848.178 2257.29 837.079 2268.77L833.575 2272.39L838.382 2270.1C840.23 2269.22 842.22 2268.28 844.219 2267.33C887.828 2246.45 914.682 2213.68 927.023 2188.77C933.366 2176.21 936.759 2165.5 938.486 2158.04C940.162 2150.57 940.556 2146.36 940.556 2146.36C940.556 2146.36 940.203 2147.39 939.748 2149.34C939.223 2151.28 938.789 2154.22 937.688 2157.9C935.719 2165.29 932.133 2175.88 925.66 2188.28C913.056 2212.88 886.283 2245.16 843.179 2265.81C841.2 2266.75 839.231 2267.69 837.413 2268.56L838.716 2269.89C850.017 2258.21 857.55 2244.86 861.499 2232.01L863.63 2225.09L859.651 2231.41C843.119 2257.73 821.102 2276.11 804.267 2287.19C795.824 2292.78 788.653 2296.73 783.674 2299.32C781.533 2300.41 779.645 2301.37 777.928 2302.25C776.635 2302.9 775.969 2303.27 775.999 2303.31Z" fill="#263238"/>
<path d="M1291.08 2239.29C1291.13 2239.4 1292.55 2239.04 1295.04 2238.27C1297.55 2237.53 1301.11 2236.27 1305.43 2234.58C1314.07 2231.2 1325.61 2225.74 1337.21 2218.34C1348.8 2210.92 1358.14 2203.04 1364.3 2196.95C1367.39 2193.92 1369.77 2191.37 1371.3 2189.54C1372.84 2187.72 1373.63 2186.68 1373.52 2186.6C1373.25 2186.42 1369.61 2190.3 1363.2 2196.12C1356.8 2201.95 1347.4 2209.6 1335.94 2216.94C1324.47 2224.25 1313.18 2229.81 1304.77 2233.45C1296.37 2237.11 1290.95 2239.02 1291.08 2239.29Z" fill="#263238"/>
<path d="M1291.12 2227.81C1291.5 2228.18 1302.34 2220.95 1315.34 2211.67C1328.35 2202.38 1338.58 2194.56 1338.19 2194.19C1337.82 2193.81 1326.97 2201.04 1313.98 2210.33C1300.98 2219.61 1290.75 2227.44 1291.12 2227.81Z" fill="#263238"/>
<path d="M1271.65 2223.39C1271.9 2223.8 1279.99 2220.48 1288.52 2214.6C1297.08 2208.76 1302.54 2202.78 1302.12 2202.49C1301.65 2202.14 1295.58 2207.51 1287.18 2213.24C1278.82 2219.01 1271.34 2222.94 1271.65 2223.39Z" fill="#263238"/>
<g opacity="0.3">
<path d="M1278.44 2052.42C1248.04 2051.9 1269.14 2094.83 1281.98 2114.83C1294.81 2134.79 1319.08 2149.4 1345.86 2152.72C1371.94 2155.96 1398.81 2149.15 1424.73 2153.15C1478.75 2161.46 1508.76 2211.74 1558.95 2230.42C1593.13 2243.13 1635.44 2238.94 1665.12 2219.89C1694.8 2200.84 1702.36 2150.22 1696.57 2119.28C1696.57 2119.28 1595.55 2057.81 1278.44 2052.42Z" fill="#060000"/>
</g>
<g opacity="0.3">
<path d="M1073.89 2323.29C1060.89 2314.56 1040.49 2316.87 1024.1 2319.33C1007.71 2321.79 992.679 2328.68 979.247 2336.91C966.188 2344.9 953.564 2355.41 951.453 2368.85C948.999 2384.42 961.189 2398.7 972.823 2411.01C977.58 2416.05 982.448 2421.15 988.73 2424.83C995.011 2428.52 1003.01 2430.66 1010.45 2429.07C1018.57 2427.35 1024.51 2421.67 1029.65 2416.13C1045.21 2399.35 1058.53 2381.12 1069.24 2361.87C1076.03 2349.69 1081.66 2335.05 1073.89 2323.29Z" fill="white"/>
</g>
<path d="M1293.31 2467.27C1293.31 2467.27 1293.2 2466.19 1292.8 2464.16C1292.46 2462.12 1291.6 2459.18 1291.07 2455.31C1289.69 2447.62 1288.46 2436.33 1289.64 2422.47C1291 2408.65 1295.43 2392.32 1304.49 2375.57C1313.66 2358.97 1325.97 2341.2 1342 2324.94C1358.76 2309.03 1379.76 2298.26 1399.48 2290.36C1419.4 2282.61 1438.36 2277.59 1454.43 2274.03C1470.52 2270.51 1483.75 2268.36 1492.92 2266.97C1496.98 2266.38 1500.46 2265.88 1503.5 2265.44C1505.91 2265.07 1507.16 2264.79 1507.16 2264.79C1507.16 2264.79 1486.51 2266.14 1454.06 2272.82C1437.89 2276.24 1418.79 2281.15 1398.67 2288.88C1378.76 2296.76 1357.47 2307.6 1340.44 2323.78C1324.12 2340.34 1311.94 2358.06 1302.74 2374.9C1293.68 2391.85 1289.34 2408.4 1288.16 2422.37C1287.16 2436.38 1288.64 2447.73 1290.27 2455.41C1291.89 2463.11 1293.31 2467.27 1293.31 2467.27Z" fill="#263238"/>
<path d="M779.191 2122.61C779.16 2123.15 783.806 2123.96 791.259 2122.9C798.632 2121.9 808.832 2118.57 817.285 2111.76C825.738 2104.94 830.091 2096.53 831.565 2090.4C833.11 2084.2 832.312 2080.29 831.676 2080.3C830.868 2080.26 830.313 2084.01 827.98 2089.56C825.708 2095.09 821.234 2102.45 813.629 2108.59C806.024 2114.72 797.066 2118.18 790.381 2119.87C783.675 2121.61 779.18 2121.94 779.191 2122.61Z" fill="#263238"/>
<path d="M743.166 2206.56C744.601 2206.75 746.034 2205.52 746.368 2203.8C746.701 2202.08 745.812 2200.54 744.378 2200.34C742.944 2200.15 741.51 2201.38 741.177 2203.1C740.843 2204.81 741.732 2206.36 743.166 2206.56Z" fill="#263238"/>
<path d="M728.321 2202.69C729.523 2203.38 731.381 2202.84 732.462 2201.51C733.553 2200.16 733.462 2198.52 732.26 2197.85C731.058 2197.16 729.2 2197.69 728.119 2199.03C727.028 2200.37 727.119 2202.01 728.321 2202.69Z" fill="#263238"/>
<path d="M728.543 2211.42C729.492 2212.33 731.078 2212.49 732.088 2211.75C733.087 2211.03 733.138 2209.69 732.178 2208.77C731.229 2207.85 729.644 2207.7 728.634 2208.43C727.634 2209.16 727.594 2210.5 728.543 2211.42Z" fill="#263238"/>
<path d="M791.239 2172.93C792.057 2173.94 794.329 2173.83 796.319 2172.68C798.308 2171.54 799.247 2169.81 798.429 2168.8C797.611 2167.8 795.339 2167.91 793.35 2169.05C791.36 2170.19 790.421 2171.92 791.239 2172.93Z" fill="#263238"/>
<path d="M784.695 2160.46C786.139 2160.54 787.421 2159.34 787.563 2157.77C787.694 2156.2 786.624 2154.86 785.179 2154.78C783.735 2154.69 782.452 2155.89 782.321 2157.47C782.18 2159.03 783.25 2160.37 784.695 2160.46Z" fill="#263238"/>
<path d="M781.816 2176.88C783.261 2176.73 784.331 2175.96 784.21 2175.16C784.089 2174.37 782.826 2173.84 781.382 2174C779.938 2174.15 778.867 2174.92 778.989 2175.71C779.11 2176.51 780.382 2177.03 781.816 2176.88Z" fill="#263238"/>
<path d="M520.408 2326.68C520.731 2327.08 563.319 2304.08 615.522 2275.29C667.745 2246.51 709.809 2222.84 709.485 2222.43C709.162 2222.03 666.584 2245.03 614.361 2273.82C562.158 2302.6 520.084 2326.27 520.408 2326.68Z" fill="#263238"/>
<path d="M455.015 2295.33C455.025 2295.39 455.924 2295.3 457.611 2295.08C459.297 2294.83 461.802 2294.53 464.973 2293.95C471.356 2292.91 480.516 2291.1 491.686 2288.37C514.066 2283.01 544.05 2273.26 576.782 2261.95C608.897 2250.88 637.943 2240.88 660.686 2233.04C670.513 2229.58 678.946 2226.6 686.015 2224.1C688.5 2223.19 690.752 2222.36 692.862 2221.59C694.418 2221 695.226 2220.66 695.195 2220.6C695.165 2220.54 694.307 2220.77 692.701 2221.26C690.55 2221.93 688.247 2222.66 685.702 2223.47C678.552 2225.82 670.038 2228.62 660.121 2231.89C637.316 2239.6 608.2 2249.44 575.984 2260.32C543.232 2271.62 513.449 2281.53 491.251 2287.17C480.183 2290.04 471.103 2292.03 464.791 2293.29C462.145 2293.81 459.762 2294.28 457.52 2294.73C455.864 2295.06 454.995 2295.27 455.015 2295.33Z" fill="#263238"/>
<g opacity="0.3">
<path d="M798.702 2004.78C787.108 2003.94 772.939 1998.11 764.516 1991.39C755.68 1984.32 750.569 1974.49 748.105 1964.46C745.641 1954.44 745.621 1944.12 745.611 1933.89C757.073 1943 768.536 1952.12 779.989 1961.23C787.29 1967.04 794.602 1972.86 801.248 1979.19C804.671 1982.46 807.984 1985.96 809.529 1990.12C811.074 1994.27 810.519 1999.21 806.933 2002.35C803.338 2005.49 796.4 2005.85 793.208 2002.43" fill="black"/>
</g>
<g opacity="0.3">
<path d="M573.065 2176.64C572.388 2159.12 563.461 2141.93 548.625 2129.56C533.789 2117.2 513.197 2109.81 492.271 2109.34C508.723 2137.93 549.827 2150.2 573.095 2175.25" fill="black"/>
</g>
<path d="M1387.68 1216.14C1392.03 1218.03 1396.4 1219.92 1400.75 1221.83C1407.94 1363.68 1415.14 1505.53 1422.33 1647.37C1426.3 1725.58 1429.99 1805.28 1395.16 1882.02L836.04 2006.7C813.165 1974.55 800.309 1938.51 796.582 1902.72C774.132 1687.42 775.172 1570.99 779.686 1430.05C781.262 1380.69 776.02 1266.18 830.546 1235.53C922.156 1184.04 1006.85 1201.37 1099.47 1184.28C1192.09 1167.18 1287.27 1208.76 1382.39 1207.9" fill="#263238"/>
<path d="M1657.03 1716.55L1821.86 1498.05C1828.72 1498.05 2308.12 1578.55 2308.12 1578.55C2308.12 1578.55 2641.91 1602.7 2650.15 1607.3C2658.39 1611.9 2760.04 1769.45 2760.04 1769.45C2692.73 1778.65 2665.26 1706.2 2665.26 1706.2L2597.94 1674L2515.52 1682.05C2539.02 1691.04 2558.88 1699.92 2564.97 1706.2C2582.83 1724.6 2592.44 1760.24 2581.45 1761.39C2570.46 1762.54 2550.4 1736.09 2498.62 1730.34C2446.84 1724.6 2315.45 1701.59 2315.45 1701.59L2268.26 1706.2L1657.03 1716.55Z" fill="#DFC4BB"/>
<path d="M2433 1653.84C2432.56 1655.05 2454.01 1661.49 2479.74 1670.75C2505.52 1679.96 2525.87 1688.53 2526.6 1687.42C2527.3 1686.41 2507.89 1676.02 2481.81 1666.7C2455.77 1657.34 2433.39 1652.73 2433 1653.84Z" fill="#A36957"/>
<path d="M2069.5 388.155C2053.35 543.304 2039.47 708.515 2126.82 846.019C2107.47 842.738 2089.78 833.082 2078.4 819.58C2085.61 870.986 2092.8 923.213 2082.71 974.281C2072.62 1025.35 2042.74 1076.02 1990.48 1103.7C1989.73 1097.29 1988.97 1090.88 1988.21 1084.47C1968.12 1193.92 1853.11 1286.09 1721.63 1298.12C1664.82 1303.32 1599.65 1291.1 1569.51 1250.45C1546.59 1219.54 1549.48 1180.41 1553.13 1144.17C1576.86 908.586 1600.58 673.004 1624.32 437.422C1630.93 371.701 1638.96 302.59 1683.99 248.47C1734.7 187.526 1831.19 156.014 1917.8 172.121C2004.41 188.228 2075.88 250.972 2091 324.159" fill="#391C13"/>
<path d="M1691.5 842.459C1691.5 842.459 1828.2 908.696 1869.88 963.662C1911.55 1018.63 1896.02 1172.79 1896.02 1172.79C1896.02 1172.79 1924.44 1258.37 1924.72 1337.5C1925.04 1426.56 1842.41 1491.78 1821.37 1539.6C1800.33 1587.42 1814.8 1805.55 1814.8 1805.55L1036.76 1821.48V1372.82L933.376 1380.69C933.376 1380.69 899.735 942.744 1056.05 887.372C1212.38 832 1400.51 777.034 1400.51 777.034L1691.5 842.459Z" fill="#E8505B"/>
<path d="M929.538 1252.21C929.538 1252.21 931.164 1254.99 935.679 1259.46C940.122 1263.93 947.697 1270.05 959.392 1275.45C970.996 1280.89 986.821 1285.27 1005.7 1286.57C1024.59 1288 1046.39 1285.26 1068.82 1278.79C1091.34 1272.37 1114.4 1262.21 1138.58 1250.9C1162.78 1239.71 1188.51 1227.25 1217.88 1219.28C1247.11 1210.99 1280.33 1210.36 1312.99 1216.61C1345.71 1223.06 1377.83 1235.01 1410.56 1247.35C1443.3 1259.7 1475.79 1271.69 1509.29 1278.04C1542.64 1284.33 1577.28 1283.15 1606.97 1274.08C1636.8 1265.32 1662.21 1251.89 1685.57 1239.5C1708.9 1226.98 1730.59 1215.34 1751.79 1206.98C1772.92 1198.58 1793.41 1193.42 1811.89 1192.05C1830.34 1190.59 1846.49 1192.14 1859 1195.18C1884.3 1201.37 1894.53 1211.29 1894.98 1210.56C1894.98 1210.56 1892.55 1208.22 1886.91 1204.78C1881.31 1201.33 1872.31 1196.84 1859.58 1193.54C1846.91 1190.19 1830.47 1188.34 1811.63 1189.6C1792.74 1190.76 1771.71 1195.83 1750.21 1204.16C1728.63 1212.46 1706.63 1224.05 1683.23 1236.41C1659.82 1248.66 1634.56 1261.8 1605.38 1270.24C1590.85 1274.49 1575.33 1277.24 1559.26 1277.57C1551.26 1278.45 1543.13 1277.25 1534.95 1277.12C1526.81 1276.37 1518.6 1275.16 1510.4 1273.82C1477.61 1267.56 1445.45 1255.67 1412.72 1243.33C1379.98 1230.99 1347.56 1218.93 1314.13 1212.4C1280.81 1206.04 1246.25 1206.79 1216.39 1215.42C1186.38 1223.69 1160.55 1236.39 1136.44 1247.71C1112.39 1259.14 1089.66 1269.34 1067.58 1275.84C1045.57 1282.39 1024.38 1285.26 1005.9 1284.11C987.417 1283.07 971.854 1279.02 960.351 1273.93C948.757 1268.88 941.102 1263.09 936.466 1258.86C931.77 1254.65 929.801 1252.05 929.538 1252.21Z" fill="#FAFAFA"/>
<path d="M954.585 1089.02C954.524 1089.07 955.16 1089.57 956.463 1090.49C957.796 1091.37 959.675 1092.83 962.422 1094.4C967.906 1097.54 976.581 1101.71 988.831 1104.65C1013.15 1110.86 1051.94 1109.9 1093.81 1094.99C1114.73 1087.68 1136.33 1077.52 1159.76 1067.35C1183.17 1057.29 1208.89 1047.1 1237.96 1042.95C1266.94 1038.53 1298.35 1039.8 1329.89 1044.84C1361.52 1049.84 1393.4 1058.49 1425.56 1068.38C1457.78 1078.24 1489.14 1088.44 1520.42 1096.02C1551.62 1103.63 1582.88 1108.58 1612.96 1108.66C1673.42 1109.05 1725.59 1092.72 1765.67 1075.88C1806.03 1058.79 1835.84 1040.9 1856.13 1028.44C1866.17 1022.07 1873.93 1017.08 1879.04 1013.53C1881.39 1011.9 1883.3 1010.57 1884.85 1009.5C1886.14 1008.57 1886.77 1008.07 1886.71 1008.01C1886.65 1007.95 1885.92 1008.34 1884.51 1009.14C1882.89 1010.12 1880.87 1011.33 1878.38 1012.82C1872.68 1016.28 1864.84 1021.03 1854.92 1027.05C1834.32 1039.05 1804.26 1056.47 1764 1073.08C1724.01 1089.45 1672.34 1105.21 1613 1104.59C1583.48 1104.41 1552.74 1099.47 1521.84 1091.87C1490.87 1084.31 1459.64 1074.12 1427.34 1064.23C1395.07 1054.32 1362.91 1045.61 1330.82 1040.59C1298.83 1035.54 1266.76 1034.31 1237.08 1038.95C1207.25 1043.32 1181.14 1053.87 1157.72 1064.11C1134.26 1074.46 1112.89 1084.72 1092.32 1092.13C1051.28 1107.15 1013.31 1108.57 989.336 1102.99C965.068 1097.53 955.019 1088.29 954.585 1089.02Z" fill="#FAFAFA"/>
<path d="M1303.64 1512.92C1303.57 1513.06 1305.43 1513.86 1309.03 1515.27C1312.62 1516.67 1317.97 1518.67 1324.91 1521.13C1338.83 1525.94 1359.06 1533.1 1385.47 1538.4C1411.55 1543.67 1445.53 1546.33 1479.9 1535.92C1514.32 1525.96 1546 1505.52 1580.09 1486.79C1613.97 1467.5 1650.84 1455.84 1685.76 1451.24C1703.21 1449.03 1720.02 1448.36 1735.72 1448.63C1751.4 1449.27 1766.01 1450.53 1779.1 1452.84C1805.39 1457.1 1825.69 1463.94 1839.22 1469.29C1852.82 1474.58 1859.91 1478.29 1860.2 1477.88C1860.29 1477.75 1858.59 1476.76 1855.23 1474.99C1851.83 1473.26 1846.95 1470.48 1840.13 1467.75C1826.77 1461.89 1806.44 1454.52 1779.85 1449.79C1766.62 1447.25 1751.82 1445.78 1735.88 1444.98C1719.93 1444.54 1702.82 1445.08 1685.01 1447.24C1649.49 1451.64 1611.44 1463.59 1577.22 1483.09C1542.85 1502.02 1511.62 1522.23 1478.28 1532.09C1445.1 1542.37 1412.17 1540.17 1386.29 1535.35C1360.15 1530.52 1339.78 1523.86 1325.67 1519.54C1319.06 1517.46 1313.68 1515.77 1309.43 1514.44C1305.7 1513.31 1303.72 1512.78 1303.64 1512.92Z" fill="#FAFAFA"/>
<path d="M1305.12 1673.16C1305.25 1673.59 1312.32 1671.94 1325.36 1670.37C1338.38 1668.77 1357.46 1667.7 1380.91 1669.2C1404.36 1670.71 1432 1675.04 1462.06 1681.9C1492.16 1688.68 1524.72 1697.96 1559.66 1705.92C1594.58 1713.81 1628.94 1719.15 1660.61 1718.88C1692.22 1718.65 1720.48 1713.2 1742.4 1705.22C1764.35 1697.2 1779.87 1687.03 1789.08 1678.99C1793.64 1674.91 1797 1671.64 1798.96 1669.19C1801.02 1666.82 1802.03 1665.54 1801.89 1665.45C1801.41 1665.13 1797.21 1670.21 1787.65 1677.76C1778.16 1685.31 1762.63 1694.86 1740.96 1702.36C1719.33 1709.79 1691.59 1714.82 1660.6 1714.82C1629.6 1714.88 1595.72 1709.51 1561.04 1701.67C1526.33 1693.77 1493.7 1684.59 1463.32 1677.98C1432.99 1671.29 1404.95 1667.23 1381.18 1666.09C1357.39 1664.97 1338.07 1666.54 1325.03 1668.68C1318.51 1669.78 1313.49 1670.77 1310.17 1671.68C1306.8 1672.51 1305.07 1673.02 1305.12 1673.16Z" fill="#FAFAFA"/>
<path d="M1306.08 1474.41C1307.53 1474.41 1308.7 1413.1 1308.7 1337.5C1308.7 1261.87 1307.52 1200.58 1306.08 1200.58C1304.63 1200.58 1303.45 1261.87 1303.45 1337.5C1303.45 1413.11 1304.62 1474.41 1306.08 1474.41Z" fill="#263238"/>
<path d="M1379.51 1557.22C1379.5 1557.37 1380.94 1557.54 1383.72 1557.73C1386.49 1557.85 1390.6 1558.27 1395.88 1558.17C1406.46 1558.32 1421.83 1557.55 1440.47 1554.57C1477.47 1548.9 1528.48 1531.77 1569.49 1496.77C1610.43 1461.71 1629.81 1418.65 1635.8 1387.55C1638.96 1371.89 1639.56 1359 1639.16 1350.16C1639.16 1345.73 1638.57 1342.31 1638.37 1339.98C1638.09 1337.67 1637.86 1336.46 1637.68 1336.47C1636.45 1336.44 1639.3 1356.16 1632.14 1386.98C1625.31 1417.48 1605.74 1459.41 1565.73 1493.69C1525.66 1527.89 1476.01 1545.15 1439.72 1551.52C1403.06 1558.17 1379.46 1556.19 1379.51 1557.22Z" fill="#263238"/>
<g opacity="0.3">
<path d="M1790.11 1765.15C1677.07 1708.83 1525.58 1718.42 1423.84 1648.62C1375.96 1615.77 1344.78 1568.36 1326.16 1518.94C1307.52 1469.52 1300.47 1417.64 1293.51 1366.14C1287.05 1461.73 1280.61 1557.32 1274.16 1652.92C1272.83 1672.5 1272.33 1694.22 1287.53 1709.14C1300.39 1721.76 1321.16 1726.05 1340.5 1729.65C1423.08 1745.03 1505.67 1760.4 1588.25 1775.78C1655.29 1788.26 1726.99 1800.51 1791.1 1779.89" fill="black"/>
</g>
<g opacity="0.2">
<path d="M1466.78 1052.41C1488.1 1074.38 1509.78 1096.9 1521.39 1123.48C1533.01 1150.06 1532.9 1181.94 1512.6 1204.58C1490.45 1229.27 1448.88 1237.4 1412.72 1231.35C1376.55 1225.3 1344.85 1207.45 1316.08 1188.15C1301.78 1178.55 1286.12 1167.93 1267.8 1168.28C1256.92 1168.49 1246.72 1172.64 1235.99 1174.23C1206.27 1178.63 1176.79 1162.41 1159.8 1141.52C1142.81 1120.63 1135.28 1095.55 1125.61 1071.61C1115.95 1047.66 1102.88 1023.27 1078.67 1008.17C1056.2 994.15 1024.79 988.435 1010.8 968.109C993.254 942.626 1016.22 908.4 1048.36 896.512C1080.49 884.624 1117.43 888.59 1152.22 892.783" fill="black"/>
</g>
<g opacity="0.2">
<path d="M1413.08 1553.94C1411.21 1556.37 1413.58 1561.48 1421.66 1567.41C1429.66 1573.31 1443.73 1579.58 1462.76 1582.53C1481.68 1585.4 1505.37 1584.7 1529.85 1577.51C1554.44 1570.37 1578.03 1556.75 1597.4 1539.13C1616.7 1521.49 1630.18 1501.92 1639.27 1483.7C1648.4 1465.48 1653.58 1448.65 1656.75 1434.53C1662.76 1406.25 1661.55 1388.4 1654.73 1386.67C1647.67 1384.88 1636.02 1400.23 1621.48 1424.68C1606.63 1448.92 1588.64 1482.09 1558.71 1509.31C1543.85 1522.8 1527.51 1533.33 1511.46 1539.97C1495.32 1546.71 1478.91 1550.09 1464.83 1551.45C1436.53 1554.23 1417.27 1548.54 1413.08 1553.94Z" fill="black"/>
</g>
<path d="M933.366 1380.68C933.497 1381.89 1017.05 1376.52 1119.95 1368.69C1222.89 1360.85 1306.21 1353.52 1306.08 1352.31C1305.95 1351.1 1222.42 1356.47 1119.47 1364.3C1016.57 1372.14 933.235 1379.47 933.366 1380.68Z" fill="#263238"/>
<path d="M1550.65 155.837C1504.66 189.353 1469.12 216.197 1420.42 241.9C1371.72 267.604 1321.36 298.304 1303.31 344.071C1290.18 377.35 1295.01 416.784 1268.67 444.017C1246.17 467.294 1207.98 474.109 1176.42 488.212C1120.94 513.002 1084.23 564.772 1084.81 617.421C1085.19 651.055 1098.93 687.149 1079.96 716.801C1063.37 742.699 1026.28 755.339 1007.87 780.357C990.326 804.192 992.982 834.503 998.739 862.075C1007.54 904.231 1026.2 949.855 1071.26 970.071C1101.83 983.785 1139.7 982.745 1172.1 972.387C1204.5 962.03 1232.11 943.234 1256.45 922.553C1303.3 882.756 1340.21 834.807 1364.17 782.648C1392.84 720.217 1402.71 653.076 1416.55 587.203C1441.92 466.491 1481.37 347.858 1534.15 233.538C1547.05 205.637 1570.12 180.94 1550.65 155.837Z" fill="#391C13"/>
<path d="M1170.19 685.231C1170.29 685.078 1167.5 683.658 1162.25 680.901C1157.01 678.12 1149.37 673.892 1140.23 667.712C1131.11 661.548 1120.53 653.271 1110.64 642.093C1100.95 630.941 1091.87 616.449 1089.25 599.226C1086.91 582.181 1091.11 562.134 1105.37 545.655C1112.5 537.581 1122.06 530.293 1134.01 526.437C1145.77 522.201 1159.42 521.753 1173.3 520.899C1187.09 520.07 1202.42 518.929 1215.54 511.886C1228.68 505.029 1237.41 493.234 1241.81 480.788C1246.29 468.25 1247.33 454.857 1245.9 441.557C1244.43 428.317 1241.25 415.203 1239.1 401.946C1236.94 388.714 1235.98 375.473 1238.88 362.884C1241.76 350.319 1248.41 338.668 1257.01 328.522C1274.34 308.027 1298.78 293.823 1323 282.764C1347.36 271.654 1371.88 263.005 1393.91 253.239C1416.02 243.626 1435.85 233.513 1453.49 223.714C1488.72 204.031 1514.81 185.295 1532.12 171.834C1540.79 165.096 1547.27 159.659 1551.58 155.897C1553.53 154.155 1555.12 152.734 1556.42 151.568C1557.49 150.578 1558 150.046 1557.93 149.986C1557.87 149.936 1557.23 150.359 1556.04 151.246C1554.63 152.329 1552.92 153.648 1550.83 155.254C1546.3 158.805 1539.59 164.03 1530.75 170.549C1513.07 183.578 1486.74 201.858 1451.45 221.101C1433.78 230.673 1413.96 240.573 1391.91 249.984C1369.98 259.529 1345.44 268.035 1320.68 279.187C1296.11 290.289 1270.88 304.755 1252.82 326.003C1243.85 336.538 1236.81 348.747 1233.75 362.038C1230.67 375.338 1231.71 389.094 1233.9 402.512C1236.08 415.964 1239.25 429.018 1240.7 441.938C1242.1 454.756 1241.09 467.666 1236.88 479.512C1232.73 491.306 1224.69 502.078 1212.84 508.301C1201.08 514.71 1186.7 515.961 1172.94 516.824C1159.17 517.745 1144.98 518.21 1132.25 522.827C1119.42 527.063 1109.27 534.917 1101.83 543.491C1086.97 560.993 1082.89 581.834 1085.55 599.581C1088.55 617.548 1098.15 632.26 1108.27 643.53C1118.6 654.809 1129.54 663.002 1138.95 669.022C1148.38 675.051 1156.26 679.075 1161.69 681.629C1164.39 682.931 1166.54 683.793 1167.95 684.402C1169.4 685.019 1170.15 685.29 1170.19 685.231Z" fill="#391C13"/>
<path d="M2134.44 626.172L1958.95 537.327C1951.75 533.683 1942.4 535.611 1938.05 541.639C1933.7 547.659 1936.01 555.497 1943.2 559.141L2118.68 647.986L2134.44 626.172Z" fill="#E8505B"/>
<g opacity="0.4">
<path d="M1943.19 559.141L1958.94 537.327C1951.74 533.683 1942.39 535.611 1938.04 541.639C1933.7 547.659 1936 555.497 1943.19 559.141Z" fill="black"/>
</g>
<g opacity="0.4">
<path d="M2123.68 641.009L1948.31 552.218L1952.7 546.14L2128.07 634.932L2123.68 641.009Z" fill="black"/>
</g>
<path d="M2118.68 647.986L2163.42 655.747L2134.44 626.172L2118.68 647.986Z" fill="#E8505B"/>
<g opacity="0.5">
<path d="M2118.68 647.986L2163.42 655.747L2134.44 626.172L2118.68 647.986Z" fill="white"/>
</g>
<path d="M2148.87 653.22L2154 646.126L2163.42 655.748L2148.87 653.22Z" fill="#391C13"/>
<path d="M1857.09 209.406C1982.87 244.123 2053.77 355.399 2018.4 462.262C1991 545.053 1959.45 634.676 1935.37 686.581C1879.36 807.344 1760.76 802.533 1760.76 802.533C1760.76 802.533 1738.62 880.505 1719.13 954.859C1700.57 1025.69 1611.8 1071.09 1520.78 1056.29C1430.65 1041.63 1371.93 973.367 1388.91 903.012L1537.66 360.193C1570.33 240.986 1718.34 171.114 1857.09 209.406Z" fill="#E5BAAB"/>
<path d="M1960.82 503.321C1958.99 511.852 1948.86 517.593 1938.17 516.156C1927.52 514.719 1920.32 506.653 1922.16 498.121C1923.99 489.59 1934.13 483.832 1944.8 485.27C1955.47 486.707 1962.65 494.79 1960.82 503.321Z" fill="#391C13"/>
<path d="M1974 483.825C1971.08 485.482 1958.89 473.873 1938.27 470.187C1917.73 466.255 1900.31 472.393 1898.62 469.874C1897.76 468.741 1901.16 465.41 1908.78 462.577C1916.3 459.753 1928.36 457.868 1941.19 460.235C1954.02 462.619 1963.79 468.529 1968.95 473.704C1974.23 478.929 1975.41 483.097 1974 483.825Z" fill="#391C13"/>
<path d="M1749.82 471.801C1747.99 480.332 1737.85 486.073 1727.17 484.644C1716.5 483.207 1709.32 475.141 1711.15 466.61C1712.98 458.078 1723.13 452.329 1733.78 453.758C1744.48 455.187 1751.65 463.27 1749.82 471.801Z" fill="#391C13"/>
<path d="M1757.28 451.163C1754.36 452.828 1742.15 441.203 1721.54 437.525C1701 433.593 1683.58 439.74 1681.89 437.22C1681.04 436.087 1684.41 432.748 1692.06 429.924C1699.58 427.1 1711.64 425.214 1724.47 427.582C1737.3 429.966 1747.07 435.876 1752.24 441.051C1757.5 446.259 1758.69 450.436 1757.28 451.163Z" fill="#391C13"/>
<path d="M1799.04 592.69C1799.2 591.693 1812.5 592.158 1833.84 593.697C1839.22 594.196 1844.42 594.221 1846.09 591.371C1848.15 588.412 1847.17 583.263 1845.94 577.674C1843.75 566.116 1841.45 554 1839.04 541.301C1829.75 489.607 1824.25 447.493 1826.75 447.197C1829.23 446.901 1838.77 488.559 1848.05 540.253C1850.22 552.977 1852.3 565.11 1854.25 576.711C1854.94 582.079 1856.9 588.378 1852.51 594.5C1850.25 597.535 1845.76 599.226 1842.19 599.378C1838.59 599.624 1835.61 599.142 1832.98 598.804C1811.86 595.946 1798.87 593.68 1799.04 592.69Z" fill="#391C13"/>
<path d="M1760.76 799.735C1760.76 799.735 1658.87 786.967 1572.26 718.854C1572.26 718.854 1598.61 813.542 1751.12 828.896L1760.76 799.735Z" fill="#E5BAAB"/>
<path d="M1706.1 388.317C1707.55 391.876 1723.99 390.168 1743.55 391.115C1763.13 391.817 1779.27 394.886 1781.15 391.47C1783.13 388.342 1767.37 378.839 1744.34 377.917C1721.32 376.902 1704.5 385.044 1706.1 388.317Z" fill="#391C13"/>
<path d="M1917.11 404.652C1916.96 408.38 1933.78 411.771 1953.62 416.709C1973.53 421.503 1989.87 426.246 1992.14 423.033C1994.39 420.015 1980.11 409.395 1958.06 404.035C1936.03 398.589 1917.15 401.092 1917.11 404.652Z" fill="#391C13"/>
<path d="M1146.35 856.47C1146.35 856.47 1227.54 781.922 1220.95 696.383C1214.36 610.852 1246.35 555.336 1303.49 535.645C1343.58 521.829 1359.53 487.24 1365.75 458.442C1376.16 410.096 1391.86 362.605 1416.51 318.03C1452.08 253.729 1499.41 187.561 1565.36 145.928C1651.1 91.7993 1785.74 55.595 1868.57 112.818C1906.98 139.367 1929.67 143.569 1963.98 188.778C1963.98 188.778 2005.34 200.886 2026.59 208.977C2099.97 236.938 2126.79 317.074 2119.03 369.369C2101.05 490.402 2013.48 505.697 1979.26 582.866C1979.26 582.866 2020.35 414.916 2017.12 368.641C2013.36 314.944 1965.78 278.528 1965.78 278.528C1907.62 269.709 1876.81 292.817 1843.36 333.612C1809.9 374.408 1788.12 407.881 1733.35 426.491C1681.76 444.018 1635.72 483.122 1565.83 441.718C1565.83 441.718 1529.1 474.321 1524.15 516.367C1519.2 558.414 1568.65 581.868 1532.39 646.71C1496.14 711.551 1428.28 755.525 1421.21 781.33" fill="#391C13"/>
<path d="M1761.12 627.567C1756.59 619.704 1746.67 614.14 1735.7 613.312C1728.09 612.737 1719.85 614.478 1714.11 618.799C1708.37 623.119 1705.7 630.162 1708.65 635.692C1711.98 641.923 1721.36 644.798 1730.01 644.223C1738.67 643.648 1746.8 640.317 1754.57 636.935C1756.72 635.996 1758.92 635.016 1760.48 633.511C1762.05 631.997 1762.83 629.807 1761.74 628.159" fill="#E8505B"/>
<path d="M1723.77 595.632C1726.59 595.962 1722.91 611.562 1736.21 625.301C1749.47 639.074 1769.75 640.647 1769.37 642.854C1769.4 643.877 1764.22 645.145 1755.8 643.927C1747.52 642.786 1736.04 638.567 1727.9 630.163C1719.8 621.742 1717.78 611.984 1718.67 605.483C1719.52 598.845 1722.52 595.328 1723.77 595.632Z" fill="#391C13"/>
<path d="M1532.34 642.93C1492.58 675.837 1476.51 727.421 1492.01 772.402C1502.22 802.02 1524.81 828.441 1529.97 858.964C1536.26 896.157 1515.82 932.345 1498.68 967.061C1481.54 1001.78 1467.36 1041.64 1485.45 1076.02C1493.02 1090.39 1505.71 1102.54 1513.48 1116.83C1521.24 1131.13 1522.9 1149.78 1509.81 1161.04C1500.7 1168.87 1486.86 1171.11 1473.86 1172.09C1376.95 1179.28 1277.6 1131.06 1236.89 1057.08C1230.32 1069.32 1223.76 1081.58 1217.2 1093.82C1173.61 1038.78 1153.31 971.103 1160.67 905.365C1168.03 839.619 1203.02 776.282 1258.06 728.994" fill="#391C13"/>
<path d="M1592.04 467.793C1594.24 459.516 1574 438.598 1564.19 436.467C1541.52 431.547 1502.13 431.944 1484.15 483.976C1458.47 558.304 1550.13 556.165 1551.02 554.076C1551.72 552.436 1584.24 497.098 1592.04 467.793Z" fill="#E5BAAB"/>
<path d="M1539.33 520.67C1539.03 520.34 1537.47 521.203 1534.51 521.575C1531.63 521.93 1527.01 521.55 1522.88 518.979C1514.5 513.822 1510.9 499.448 1515.1 485.946C1517.21 479.122 1521.13 473.094 1525.84 468.452C1530.42 463.675 1535.94 460.893 1540.91 461.333C1545.92 461.561 1548.45 464.74 1548.8 467.091C1549.28 469.458 1548.2 470.803 1548.63 471.048C1548.81 471.293 1550.97 470.27 1551.32 467.023C1551.46 465.459 1551.03 463.455 1549.43 461.519C1547.8 459.549 1544.93 458.052 1541.53 457.554C1534.55 456.294 1526.57 460.073 1521.39 465.163C1515.84 470.194 1511.24 476.924 1508.87 484.584C1504.27 499.702 1508.58 515.935 1520.34 522.15C1526.12 525.025 1531.88 524.712 1535.17 523.604C1538.55 522.429 1539.59 520.882 1539.33 520.67Z" fill="#DFC4BB"/>
<path d="M1114.4 680.377C1115.42 680.081 1114.56 676.818 1114.29 670.815C1114.05 664.845 1114.91 655.951 1120.02 645.627C1125.05 635.371 1134.5 623.636 1149.21 613.929C1164.17 604.104 1184.21 596.351 1207.77 589.444C1231.16 582.324 1258.73 575.983 1286.16 562.362C1299.71 555.505 1313.31 546.467 1323.68 534.385C1334.26 522.463 1341.16 508.741 1346.79 495.137C1352.49 481.482 1357.11 467.759 1363.3 454.891C1369.54 442.124 1377.5 430.312 1389.28 421.823C1412.81 404.313 1450.05 400.508 1486.53 402.918C1523.45 405.404 1561.65 413.055 1600.92 410.4C1620.46 409.166 1639.98 404.685 1656.94 397.633C1674 390.641 1688.85 381.552 1702.05 371.922C1728.41 352.518 1748.31 330.839 1767.1 311.747C1785.83 292.572 1803.73 275.492 1822.66 262.7C1859.87 236.261 1901.67 230.918 1927.97 234.443C1941.32 236.067 1951.23 239.533 1957.65 242.298C1964.13 245.029 1967.57 246.745 1968.24 246.094C1968.76 245.612 1966.48 242.738 1960.53 238.578C1954.65 234.393 1944.53 229.218 1930.05 226.056C1915.62 222.894 1896.96 221.913 1876.09 225.312C1855.36 228.643 1832.3 237.081 1811.25 250.406C1789.88 263.529 1770.16 281.056 1750.46 299.953C1730.69 318.841 1710.81 339.226 1686.24 356.551C1661.83 373.892 1632.59 387.403 1598.91 388.908C1564.97 391.081 1528.56 383.852 1488.51 380.969C1468.41 379.658 1447.98 380.03 1427.87 383.429C1407.84 386.718 1387.87 393.939 1372.2 405.674C1356.31 417.41 1346.68 432.781 1339.96 447.129C1333.32 461.621 1328.93 475.707 1323.84 488.618C1318.84 501.571 1313.06 513.433 1304.91 523.08C1297.02 532.837 1286.26 540.523 1274.62 546.873C1251.06 559.513 1224.84 566.7 1201.1 574.909C1177.29 582.95 1155.65 592.462 1139.74 604.502C1123.69 616.719 1114.5 630.712 1110.34 642.82C1106.11 654.995 1106.99 665.167 1109.03 671.457C1111.12 677.815 1113.73 680.597 1114.4 680.377Z" fill="#4B3731"/>
<path d="M1643.43 121.112C1661.84 106.063 1673.62 84.9673 1673.27 63.4239C1672.92 41.8806 1659.69 20.3542 1637.75 9.11746C1622.99 1.56714 1605.06 -1.14692 1587.88 0.43417C1549.18 3.99373 1515.16 30.7031 1508.44 62.8067C1501.71 94.9188 1522.84 129.711 1557.79 144.085C1592.74 158.458 1638.55 151.195 1664.79 127.115" fill="#391C13"/>
<path d="M1555.2 141.667C1555.15 142.165 1562.23 143.29 1573.81 142.749C1585.34 142.241 1601.35 139.561 1617.44 133.237C1633.52 126.862 1646.16 118.229 1653.97 111.093C1661.82 103.957 1665.29 98.6643 1664.8 98.3769C1663.58 97.3707 1646.58 117.113 1615.2 129.246C1584.06 141.81 1555.05 140.238 1555.2 141.667Z" fill="#E8505B"/>
<path d="M2024.54 537.842C2024.94 537.783 2024.51 532.921 2023.92 524.255C2024.21 515.555 2025.04 502.931 2030.07 487.898C2034.97 472.865 2043.38 455.634 2053.42 436.67C2063.16 417.646 2074.88 396.72 2081.17 372.953C2084.51 361.116 2085.36 349.127 2084.82 337.628C2083.94 326.087 2080.43 315.171 2075.42 305.473C2065.38 285.951 2049.55 271.467 2034.47 261.896C2019.17 252.367 2004.61 247.556 1994.44 245.282C1989.36 244.031 1985.29 243.54 1982.53 243.261C1979.77 242.957 1978.32 242.864 1978.29 243.016C1978.18 243.515 1984 244.098 1993.84 246.922C2003.65 249.662 2017.6 254.794 2032.18 264.365C2046.56 273.978 2061.55 288.217 2070.96 307.071C2075.65 316.439 2078.91 326.89 2079.67 337.915C2080.1 348.966 2079.29 360.498 2076.01 372.023C2069.93 395.139 2058.46 415.955 2048.96 435.072C2039.16 454.129 2030.97 471.716 2026.46 487.121C2021.8 502.534 2021.51 515.512 2021.86 524.323C2022.37 528.728 2023.13 532.118 2023.55 534.409C2024.03 536.692 2024.36 537.867 2024.54 537.842Z" fill="#4B3731"/>
<path d="M1931.4 1141.72C1931.5 1141.84 1933.54 1140.84 1937.35 1138.82C1941.27 1136.9 1946.62 1133.59 1953.34 1129.09C1966.64 1120.03 1984.09 1104.67 1999.67 1082.38C2015.14 1060.1 2028.2 1030.85 2034.19 997.11C2040.29 963.349 2038.69 925.606 2032.53 886.823C2026.26 847.981 2016.73 811.573 2009.28 778.362C2001.7 745.168 1996.36 715.068 1994.17 689.618C1991.99 664.169 1992.68 643.488 1994.11 629.267C1995.51 615.037 1997.17 607.241 1996.66 607.165C1996.47 607.14 1995.94 609.068 1995.08 612.771C1994.13 616.466 1993.14 621.97 1992.07 629.098C1989.99 643.336 1988.73 664.169 1990.45 689.821C1992.18 715.465 1997.18 745.793 2004.51 779.098C2011.72 812.427 2021.07 848.801 2027.32 887.398C2033.45 925.927 2035.15 963.239 2029.4 996.518C2023.76 1029.8 2011.26 1058.7 1996.44 1080.83C1981.51 1102.97 1964.75 1118.41 1952 1127.79C1939.25 1137.23 1931.03 1141.25 1931.4 1141.72Z" fill="#4B3731"/>
<path d="M1481.07 1124.05C1481.12 1123.99 1480.49 1123.49 1479.21 1122.56C1477.67 1121.48 1475.78 1120.16 1473.43 1118.52C1468.33 1114.99 1460.87 1109.75 1451.45 1102.82C1432.88 1088.8 1406.09 1067.93 1380.01 1037.46C1354.14 1007.27 1329.23 966.004 1324.53 916.551C1322.01 892.065 1324.76 865.762 1335.42 840.549C1345.55 815.074 1366.19 792.694 1383.21 767.591C1391.69 755.027 1398.93 741.761 1402.69 727.827C1406.55 713.935 1407.23 699.849 1406.63 686.228C1405.3 658.936 1399.43 633.198 1398.88 608.501C1398.1 583.83 1401.18 560.274 1408.13 539.137C1415.04 517.999 1425.91 499.356 1439.1 484.416C1465.83 454.324 1499.8 439.697 1523.58 434.311C1547.79 428.909 1562.02 430.634 1561.95 429.974C1561.95 429.898 1561.09 429.813 1559.4 429.729C1557.39 429.661 1554.9 429.568 1551.85 429.467C1545.24 429.712 1535.35 430.008 1523.05 432.654C1498.75 437.617 1463.82 452.05 1436.12 482.547C1422.43 497.724 1411.16 516.663 1403.93 538.156C1396.66 559.648 1393.38 583.568 1394.03 608.594C1394.47 633.697 1400.26 659.553 1401.48 686.38C1402.04 699.765 1401.32 713.462 1397.59 726.829C1393.96 740.213 1386.97 753.048 1378.62 765.418C1361.94 790.106 1340.98 812.834 1330.56 839.112C1319.68 865.018 1317 891.938 1319.7 916.889C1324.76 967.273 1350.5 1009.04 1376.99 1039.28C1403.72 1069.82 1431.07 1090.44 1450.1 1104.13C1459.77 1110.88 1467.46 1115.92 1472.78 1119.23C1475.25 1120.72 1477.25 1121.94 1478.88 1122.93C1480.27 1123.72 1481.02 1124.11 1481.07 1124.05Z" fill="#4B3731"/>
<path d="M1479.61 531.874C1479.42 531.679 1476.42 533.218 1471.87 536.938C1467.44 540.633 1461.11 546.814 1458.23 556.419C1455.35 565.947 1458.23 578.681 1468.31 588.666C1478.01 598.584 1494.98 606.176 1513.26 604.071C1531.45 601.83 1545.59 590.721 1551 578.52C1553.76 572.399 1554.32 565.914 1553.01 560.206C1551.66 554.491 1548.8 549.562 1545.41 545.605C1538.52 537.648 1529.8 533.725 1523.69 532.254C1517.48 530.758 1513.87 531.155 1513.88 531.349C1513.83 531.755 1517.34 531.958 1523 533.869C1528.59 535.746 1536.38 539.83 1542.34 547.372C1548.31 554.728 1551.86 566.066 1546.46 577.057C1541.46 587.871 1528.48 597.789 1512.52 599.708C1496.49 601.602 1481.01 594.948 1472.01 586.045C1462.67 577.099 1459.71 565.778 1461.87 557.07C1464.03 548.251 1469.53 542.028 1473.38 538.097C1477.34 534.131 1479.9 532.144 1479.61 531.874Z" fill="#E8505B"/>
<path d="M1529.55 183.772C1529.37 183.806 1529.63 185.125 1530.26 187.636C1530.64 189.04 1531.05 190.57 1531.5 192.269C1532.26 194.138 1533.1 196.184 1534 198.408C1538.1 207.463 1545.78 220.526 1560.69 232.98C1575.16 245.544 1597.01 257.567 1624.4 262.446C1638.03 264.813 1652.99 265.202 1667.9 263.063C1682.86 261 1697.79 256.84 1712.35 251.497C1741.53 240.717 1766.75 226.791 1791.08 216.738C1815.28 206.457 1838.76 200.124 1859.16 199.008C1879.55 197.689 1896.02 200.919 1906.58 204.419C1917.15 208.072 1922.28 211.386 1922.58 211.014C1922.69 210.896 1921.46 210.025 1919.01 208.478C1916.55 206.956 1912.67 204.969 1907.4 202.838C1896.82 198.754 1879.95 194.933 1858.93 195.888C1837.9 196.624 1813.56 202.872 1788.94 213.086C1764.16 223.088 1738.86 236.895 1710.24 247.447C1695.95 252.689 1681.46 256.747 1667.06 258.793C1652.65 260.907 1638.46 260.603 1625.36 258.455C1599.05 253.999 1577.68 242.695 1563.31 230.757C1548.5 218.936 1540.5 206.448 1535.9 197.748C1534.85 195.609 1533.88 193.648 1532.99 191.847C1532.36 190.215 1531.8 188.744 1531.28 187.391C1530.32 184.998 1529.74 183.738 1529.55 183.772Z" fill="#4B3731"/>
<path d="M1728.62 2029.13L2362.4 2285.58L3524.35 2020.28L2953.94 1759.4L1728.62 2029.13Z" fill="#627F8E"/>
<path d="M2427.46 2018.27L2259.18 2064.81L2103.4 1993.9L2362.68 1924.26L2514.11 1989.96L2427.46 2018.27Z" fill="#455A64"/>
<path d="M3672.23 1303.98C3666.95 1321.66 3524.35 2020.28 3524.35 2020.28L2362.4 2285.58L2515.56 1538.32L3672.23 1303.98Z" fill="#849CA8"/>
<path d="M2446.97 1873.01C2445.54 1872.8 2425.45 1965 2402.1 2078.91C2378.74 2192.86 2360.98 2285.37 2362.41 2285.58C2363.84 2285.79 2383.93 2193.61 2407.28 2079.66C2430.63 1965.75 2448.4 1873.22 2446.97 1873.01Z" fill="#455A64"/>
<path d="M3054.06 1814.74C3022.64 1804.55 3008.63 1771.52 3022.77 1740.96C3036.91 1710.41 3073.85 1693.89 3105.27 1704.08C3136.69 1714.27 3150.7 1747.3 3136.56 1777.86C3122.42 1808.42 3085.48 1824.93 3054.06 1814.74Z" fill="#455A64"/>
<path d="M1869.88 1925.68C1869.88 1925.68 1189.52 1974.47 1076.86 1906.17C964.189 1837.86 964.189 1379.23 964.189 1379.23L1301.34 1353.21L1306.09 1671.97C1329.4 1688.24 1916.07 1769.55 1966.58 1766.3C1966.58 1766.3 2274.03 1793.8 2290.8 1793.8C2307.56 1793.8 2418.82 1899.71 2418.82 1904.81C2418.82 1904.81 2417.3 1918.85 2406.63 1923.96C2406.63 1923.96 2420.35 1937.99 2405.11 1952.03C2405.11 1952.03 2409.68 1969.89 2392.92 1973.72C2376.15 1977.55 2374.63 1983.93 2354.81 1973.72C2335 1963.52 2237.45 1899.72 2237.45 1899.72L2164.29 1894.61C2164.29 1894.61 2342.61 1980.1 2327.37 1999.24C2312.14 2018.38 2277.08 1996.69 2237.45 1978.82C2197.82 1960.95 2132.29 1929.05 2120.1 1926.5C2107.91 1923.95 1869.88 1925.68 1869.88 1925.68Z" fill="#DFC4BB"/>
<path d="M2191.7 1845.39C2191.65 1846.22 2205.86 1846.11 2227.68 1850.9C2249.48 1855.5 2278.36 1866.12 2306.23 1883.04C2334.12 1899.97 2356.28 1918.65 2372.31 1932.07C2388.27 1945.59 2398.17 1953.98 2398.74 1953.54C2399 1953.34 2396.88 1950.97 2392.8 1946.88C2388.72 1942.78 2382.68 1936.97 2375 1929.93C2359.61 1915.92 2337.7 1896.7 2309.31 1879.47C2280.93 1862.23 2251.04 1851.78 2228.55 1847.87C2217.32 1845.83 2208.04 1845.06 2201.64 1844.95C2195.24 1844.83 2191.7 1845.13 2191.7 1845.39Z" fill="#A36957"/>
<path d="M2230.39 1824.51C2230.35 1825.31 2242.66 1825.19 2261.47 1829.46C2280.26 1833.56 2305.08 1843.07 2328.71 1858.19C2352.36 1873.33 2370.89 1890.03 2384.31 1902C2397.68 1914.06 2406 1921.54 2406.57 1921.11C2407.09 1920.74 2399.8 1912.57 2387.09 1899.93C2374.33 1887.39 2356.05 1870.15 2331.89 1854.68C2307.73 1839.21 2281.87 1829.86 2262.36 1826.44C2252.61 1824.65 2244.56 1824.02 2239.01 1823.98C2233.45 1823.92 2230.39 1824.24 2230.39 1824.51Z" fill="#A36957"/>
<path d="M1199.15 1768.78C1200.04 1768.96 1202.3 1761.28 1208.39 1749.77C1214.42 1738.26 1225.03 1723.12 1240.8 1709.22C1256.64 1695.37 1274.21 1685.79 1287.65 1680.21C1301.1 1674.58 1310.15 1672.33 1309.9 1671.58C1309.79 1671.15 1300.29 1672.34 1286.07 1677.38C1271.89 1682.36 1253.35 1691.87 1236.99 1706.18C1220.69 1720.54 1210.22 1736.49 1204.94 1748.58C1199.6 1760.72 1198.62 1768.71 1199.15 1768.78Z" fill="#AA6550"/>
<path d="M2368.31 2367.27C2397.9 2373.27 2411.14 2405.25 2401.16 2429.34C2391.18 2453.42 2365.18 2470.23 2338.64 2482.73C2258.77 2520.33 2152.73 2529.22 2078.48 2484.28C2045.98 2464.61 2020.52 2429.81 2033.95 2398.18C2045.71 2370.49 2081.94 2356.17 2115.83 2348.48C2206.16 2327.96 2304.88 2334.41 2390.32 2366.41" fill="#937474"/>
<path d="M2411.82 2167.15C2411.82 2167.15 2466.56 2471.88 2212.2 2462.13C1973.94 2453 2057.42 2156.32 2057.42 2156.32L2411.82 2167.15Z" fill="#3B3540"/>
<path d="M2097.41 2377.64C2057.64 2399.83 2004.55 2404.54 1960.43 2389.16C1916.31 2373.78 1882.71 2338.55 1875.39 2299.01C1868.07 2259.47 1887.67 2217.06 1925.37 2192.47C1963.07 2167.88 2017.5 2162.45 2060.71 2179.53L2064.43 2214.24C2037.47 2203.58 2003.5 2206.97 1979.98 2222.32C1956.45 2237.66 1944.23 2264.13 1948.79 2288.8C1953.36 2313.47 1974.33 2335.46 2001.86 2345.05C2029.39 2354.64 2062.52 2351.71 2087.35 2337.86L2097.41 2377.64Z" fill="#3B3540"/>
<path d="M2057.41 2156.32C2056.37 2175.2 2134.97 2193.59 2232.99 2197.37C2331 2201.17 2411.3 2188.94 2412.34 2170.05C2413.38 2151.17 2334.78 2132.79 2236.76 2129C2138.75 2125.2 2058.45 2137.44 2057.41 2156.32Z" fill="#E8505B"/>
<g opacity="0.2">
<path d="M2046.86 2209.71C2067.84 2215.64 2082.78 2232.56 2084.84 2251.02C2086.9 2269.49 2079.54 2287.82 2069.89 2304.51C2066.97 2309.58 2061.94 2315.4 2055.32 2314.34C2048.91 2313.32 2046.65 2306.7 2045.86 2301.29C2041.5 2271.35 2040.34 2240.71 2046.96 2211.05" fill="black"/>
</g>
<path d="M2111.65 2183.51C2029.16 2165.04 2283.07 2172.67 2365.32 2191.85C2365.32 2191.85 2230.35 2210.07 2111.65 2183.51Z" fill="#08141A"/>
</g>
<defs>
<clipPath id="clip0_32_1774">
<rect width="4866" height="2932" fill="white" transform="matrix(-1 0 0 1 4866 0)"/>
</clipPath>
</defs>
</svg>
